# Blender 3.6.1
# www.blender.org
g frame.109_Cube.153
v -62.697510 -6.231105 -24.610628
v -62.697510 -4.022926 -24.610628
v -64.168198 -6.231105 -24.610628
v -64.168198 -4.022926 -24.610628
v -62.697514 -6.231105 -24.970716
v -62.697514 -4.022926 -24.970716
v -64.168198 -6.231105 -24.970716
v -64.168198 -4.022926 -24.970716
v -64.313416 -6.326608 -24.610628
v -62.552288 -6.326608 -24.610628
v -62.552288 -3.927423 -24.610628
v -64.313416 -3.927423 -24.610628
v -64.313416 -3.927423 -24.970716
v -64.313416 -6.326608 -24.970716
v -62.552288 -6.326608 -24.970716
v -62.552288 -3.927423 -24.970716
v -62.552288 -5.176899 -24.610628
v -62.552288 -5.077133 -24.610628
v -64.313416 -5.077133 -24.610628
v -64.313416 -5.176899 -24.610628
v -64.313416 -5.077133 -24.970716
v -64.313416 -5.176899 -24.970716
v -62.552288 -5.077133 -24.970716
v -62.552288 -5.176899 -24.970716
v -62.697510 -5.172928 -24.610628
v -62.697510 -5.081105 -24.610628
v -64.168198 -5.081105 -24.610628
v -64.168198 -5.172928 -24.610628
v -64.168198 -5.081105 -24.970716
v -64.168198 -5.172928 -24.970716
v -62.697514 -5.081105 -24.970716
v -62.697514 -5.172928 -24.970716
vn -0.0000 -1.0000 -0.0000
vn -1.0000 -0.0000 -0.0000
vn 1.0000 -0.0000 -0.0000
vn -0.0000 1.0000 -0.0000
vn -0.0000 -0.0000 1.0000
vn -0.0000 -0.0000 -1.0000
vt -1.103619 3.863199
vt -1.103618 5.927442
vt -1.609037 5.927443
vt -1.609038 3.863199
vt -2.114456 2.109446
vt -2.114456 0.495720
vt -1.609038 0.495720
vt -1.609038 2.109446
vt -0.092780 5.348452
vt -0.598199 5.348452
vt -0.598199 3.863199
vt -0.092780 3.863199
vt 3.334789 2.109446
vt 3.334789 0.495720
vt 3.840207 0.495720
vt 3.840207 2.109446
vt 6.245641 -0.110193
vt 5.740223 -0.110193
vt 5.740222 -2.582105
vt 6.245641 -2.582105
vt 6.245640 2.361720
vt 5.740222 2.361720
vt 5.740222 -0.110192
vt 6.245641 -0.110192
vt 1.066709 3.729154
vt 3.130953 3.729154
vt 3.334787 3.863201
vt 0.862874 3.863201
vt 1.066709 2.243903
vt 0.862874 2.249477
vt 3.130953 0.629767
vt 1.066709 0.629767
vt 0.862874 0.495720
vt 3.334787 0.495720
vt 3.130953 2.115020
vt 3.334787 2.109446
vt -1.405203 2.243903
vt -1.405203 3.729154
vt -1.609038 3.863201
vt -1.609038 2.249477
vt 0.659039 3.729154
vt 0.659039 0.629767
vt -1.405203 0.629767
vt 0.659039 2.115020
vt 0.862874 2.109446
vt 0.659039 2.243903
vt -1.405203 2.115020
vt 3.130953 2.243903
vt 3.334787 2.249477
vt 1.066709 2.115020
vt 3.334789 3.863201
vt 3.334789 2.249477
vt 3.840207 2.249477
vt 3.840207 3.863201
vt -1.609038 5.927443
vt -2.114457 5.927443
vt -2.114456 3.863199
vt -2.114456 3.863201
vt -2.114456 2.249477
vt 0.862874 5.348452
vt 0.862874 3.863199
vt 1.368293 3.863199
vt 1.368293 5.348452
vt 0.412639 3.863199
vt 0.412639 5.348450
vt -0.092780 5.348450
vt -1.103618 5.927443
vt -1.103618 3.863199
vt -0.598199 3.863200
vt -0.598200 5.927443
vt 1.873712 5.348450
vt 1.368293 5.348450
vt 1.873712 3.863199
s 0
f 2/1/1 4/2/1 8/3/1 6/4/1
f 19/5/2 12/6/2 13/7/2 21/8/2
f 27/9/3 29/10/3 8/11/3 4/12/3
f 23/13/3 16/14/3 11/15/3 18/16/3
f 9/17/1 14/18/1 15/19/1 10/20/1
f 13/21/4 12/22/4 11/23/4 16/24/4
f 1/25/5 3/26/5 9/27/5 10/28/5
f 25/29/5 1/25/5 10/28/5 17/30/5
f 4/31/5 2/32/5 11/33/5 12/34/5
f 27/35/5 4/31/5 12/34/5 19/36/5
f 30/37/6 7/38/6 14/39/6 22/40/6
f 7/38/6 5/41/6 15/28/6 14/39/6
f 6/42/6 8/43/6 13/7/6 16/33/6
f 31/44/6 6/42/6 16/33/6 23/45/6
f 5/41/6 32/46/6 24/30/6 15/28/6
f 32/46/6 31/44/6 23/45/6 24/30/6
f 8/43/6 29/47/6 21/8/6 13/7/6
f 29/47/6 30/37/6 22/40/6 21/8/6
f 3/26/5 28/48/5 20/49/5 9/27/5
f 28/48/5 27/35/5 19/36/5 20/49/5
f 2/32/5 26/50/5 18/45/5 11/33/5
f 26/50/5 25/29/5 17/30/5 18/45/5
f 15/51/3 24/52/3 17/53/3 10/54/3
f 24/52/3 23/13/3 18/16/3 17/53/3
f 29/55/4 27/56/4 26/57/4 31/4/4
f 30/37/6 29/47/6 31/44/6 32/46/6
f 9/58/2 20/59/2 22/40/2 14/39/2
f 20/59/2 19/5/2 21/8/2 22/40/2
f 26/60/2 2/61/2 6/62/2 31/63/2
f 25/29/5 26/50/5 27/35/5 28/48/5
f 32/64/2 5/65/2 1/66/2 25/12/2
f 3/67/4 1/68/4 5/69/4 7/70/4
f 3/71/3 7/72/3 30/62/3 28/73/3
g front-pair_right_Cube.028
v -58.510548 -7.625387 -24.798027
v -58.510548 -1.217615 -24.798027
v -58.510548 -7.625387 -20.798027
v -58.510548 -1.217615 -20.798027
v -67.278969 -7.625387 -24.798027
v -67.278969 -1.217615 -24.798027
v -67.278969 -7.625387 -20.798027
v -67.278969 -1.217615 -20.798027
v -58.516129 -7.696361 1.370321
v -58.516129 -0.899608 1.370321
v -67.292221 -7.696361 1.370321
v -67.292221 -0.899608 1.370321
v -58.516125 -7.696361 -21.771580
v -58.516125 -0.899608 -21.771580
v -67.292213 -7.696361 -21.771580
v -67.292213 -0.899608 -21.771580
v -58.411350 -7.625391 9.291306
v -63.649635 -7.625391 9.291306
v -63.649635 -1.611716 9.291306
v -58.411350 -1.611716 9.291306
v -58.411350 -1.611716 1.042061
v -58.411350 -7.625391 1.042061
v -63.649635 -1.611716 5.431049
v -63.649635 -7.625391 5.431049
v -67.118225 -7.625391 1.042061
v -67.118225 -1.611716 1.042061
v -67.118225 -7.625391 5.431049
v -67.118225 -1.611716 5.431049
v -61.030495 -7.625391 9.291306
v -61.030495 -1.319661 9.291306
v -61.030495 -7.625391 3.236557
v -67.118225 -7.625391 3.236557
v -67.118225 -1.319661 3.236557
vn 1.0000 -0.0000 -0.0000
vn -0.0000 -0.0000 1.0000
vn -1.0000 -0.0000 -0.0000
vn -0.0000 -0.0000 -1.0000
vn -0.0000 -1.0000 -0.0000
vn -0.0000 1.0000 -0.0000
vt 16.804384 22.708511
vt 16.804384 15.122343
vt 21.416868 15.122343
vt 21.416868 22.708511
vt -7.728058 16.484760
vt -14.924876 16.484760
vt -14.924878 5.826704
vt -7.728058 5.826704
vt -7.291178 23.264767
vt -7.291178 15.678595
vt -2.678697 15.678595
vt -2.678697 23.264767
vt 16.804384 15.753405
vt 9.607565 15.753405
vt 9.607565 5.095350
vt 16.804384 5.095350
vt 17.441156 -11.719137
vt 17.441156 -1.061084
vt 12.948598 -1.061084
vt 12.948598 -11.719137
vt 9.607562 15.762724
vt 1.973866 15.762724
vt 1.973866 5.095344
vt 9.607562 5.095344
vt -22.558571 5.826704
vt -22.558575 -22.302382
vt -14.924878 -22.302382
vt -14.924878 16.494083
vt -22.558571 16.494089
vt -22.558575 5.826707
vt -14.924878 5.826707
vt -7.291179 5.826704
vt -14.924876 5.826704
vt -14.924878 -22.302383
vt -7.291180 -22.302383
vt -7.291179 5.095350
vt -7.291178 -22.302383
vt 2.828712 -22.302383
vt 2.828712 5.095350
vt 12.948596 -22.302383
vt 12.948596 5.095350
vt 12.627750 23.218761
vt 12.627750 15.753399
vt 15.647936 16.099161
vt 15.647936 23.218761
vt 23.558577 15.122343
vt 16.804384 5.095347
vt 23.558577 5.095347
vt 19.702791 -11.719137
vt 12.948598 -22.302383
vt 19.702791 -22.302383
vt 17.441156 -4.599536
vt 21.440851 -11.719137
vt 21.440851 -4.599536
vt 4.504384 23.228088
vt 4.504384 15.762724
vt 7.034902 16.108488
vt 7.034902 23.228088
vt -4.826455 8.278933
vt -4.826455 15.678598
vt -7.291178 15.678598
vt -7.291178 5.095353
vt 1.772646 15.678595
vt 1.772646 22.798195
vt -2.678697 22.798195
vt 1.973869 5.095353
vt 1.973869 8.278933
vt -2.361735 11.462515
vt 1.973869 11.462511
vt -2.361735 15.678598
vt 1.973872 23.228088
vt 1.973872 16.108488
vt 9.607565 23.218761
vt 9.607565 16.099161
s 0
f 33/74/7 34/75/7 36/76/7 35/77/7
f 35/78/8 36/79/8 40/80/8 39/81/8
f 39/82/9 40/83/9 38/84/9 37/85/9
f 37/86/10 38/87/10 34/88/10 33/89/10
f 35/90/11 39/91/11 37/92/11 33/93/11
f 41/94/8 42/95/8 44/96/8 43/97/8
f 43/80/9 44/98/9 48/99/9 47/100/9
f 47/101/10 48/102/10 46/103/10 45/104/10
f 45/105/7 46/106/7 42/107/7 41/108/7
f 43/109/11 47/110/11 45/111/11 41/112/11
f 48/113/12 44/114/12 42/112/12 46/111/12
f 61/115/8 62/116/8 51/117/8 50/118/8
f 54/119/7 53/75/7 52/120/7 49/121/7
f 57/122/10 58/93/10 53/123/10 54/124/10
f 56/125/8 55/90/8 60/126/8 59/127/8
f 64/128/9 65/129/9 58/130/9 57/131/9
f 63/132/11 64/133/11 57/134/11 54/135/11
f 55/136/9 56/137/9 50/138/9 51/84/9
f 63/132/11 54/135/11 49/139/11 61/140/11
f 56/141/11 63/132/11 61/140/11 50/142/11
f 56/141/11 59/143/11 64/133/11 63/132/11
f 59/144/9 60/145/9 65/129/9 64/128/9
f 49/146/8 52/147/8 62/116/8 61/115/8
g glass.109_Plane.053
v -62.635208 -3.973669 -24.901485
v -62.635208 -6.274740 -24.901485
v -64.241699 -3.973669 -24.901485
v -64.241699 -6.274740 -24.901485
vn -0.0000 -0.0000 -1.0000
vt 0.698148 0.000000
vt 0.698148 1.000000
vt 0.000000 1.000000
vt 0.000000 0.000000
s 0
f 66/148/13 67/149/13 69/150/13 68/151/13
g front_doorframe.001_Cube.154
v -66.671356 -7.732630 -24.669062
v -66.671356 -3.845546 -24.669062
v -64.854202 -7.732631 -24.669062
v -64.854202 -3.845546 -24.669062
v -66.671356 -7.732630 -24.928835
v -66.671356 -3.845546 -24.928835
v -64.854202 -7.732631 -24.928835
v -64.854202 -3.845546 -24.928835
v -64.674767 -7.725304 -24.669060
v -66.850792 -7.725304 -24.669062
v -66.850792 -3.674150 -24.669062
v -64.674767 -3.674151 -24.669060
v -64.674767 -3.674151 -24.928835
v -64.674767 -7.725304 -24.928835
v -66.850792 -7.725304 -24.928837
v -66.850792 -3.674150 -24.928837
vn -0.0000 -1.0000 -0.0000
vn 1.0000 -0.0000 -0.0000
vn -0.0000 1.0000 -0.0000
vn -0.0000 -0.0000 1.0000
vn -0.0000 -0.0000 -1.0000
vn -1.0000 -0.0000 -0.0000
vt 5.001509 3.539694
vt 5.366127 3.539694
vt 5.366126 6.090241
vt 5.001508 6.090241
vt 4.646370 5.941324
vt 4.281753 5.941324
vt 4.281753 0.485436
vt 4.646370 0.485436
vt 5.001509 3.539694
vt 5.001508 0.485436
vt 5.366126 0.485436
vt 5.366127 3.539694
vt 1.114730 -4.960168
vt 0.862875 -5.200737
vt 3.917134 -5.200738
vt 3.665277 -4.960169
vt -4.993785 0.736289
vt -5.245640 0.495720
vt -2.191382 0.495720
vt -2.443237 0.736290
vt -4.993786 6.192177
vt -5.245641 6.181894
vt -2.191383 6.181894
vt -2.443238 6.192178
vt 1.114731 0.495720
vt 0.862876 0.485437
vt 3.917134 0.485436
vt 3.665279 0.495720
vt 5.010987 0.485436
vt 4.646369 0.485436
vt 4.646369 -5.200738
vt 5.010987 -5.200738
vt 5.375605 0.485436
vt 5.010987 0.485436
vt 5.010987 -5.200738
vt 5.375605 -5.200738
vt 3.917135 5.941324
vt 3.917135 0.485436
s 0
f 71/152/14 75/153/14 77/154/14 73/155/14
f 70/156/15 74/157/15 75/158/15 71/159/15
f 82/160/16 85/161/16 80/162/16 81/163/16
f 73/164/17 81/165/17 80/166/17 71/167/17
f 75/168/18 85/169/18 82/170/18 77/171/18
f 74/172/18 84/173/18 85/169/18 75/168/18
f 77/171/18 82/170/18 83/174/18 76/175/18
f 72/176/17 78/177/17 81/165/17 73/164/17
f 71/167/17 80/166/17 79/178/17 70/179/17
f 84/180/19 79/181/19 80/182/19 85/183/19
f 78/184/15 83/185/15 82/186/15 81/187/15
f 76/157/19 72/188/19 73/189/19 77/158/19
g doorframe.002_Cube.157
v -61.851913 -7.732631 9.183265
v -61.851913 -3.845546 9.183265
v -60.034760 -7.732631 9.183266
v -60.034760 -3.845546 9.183266
v -61.851913 -7.732631 9.443039
v -61.851913 -3.845546 9.443039
v -60.034760 -7.732631 9.443040
v -60.034760 -3.845546 9.443040
v -59.855324 -7.725304 9.183266
v -62.031349 -7.725304 9.183265
v -62.031349 -3.674151 9.183265
v -59.855324 -3.674151 9.183266
v -59.855324 -3.674151 9.443040
v -59.855324 -7.725304 9.443040
v -62.031349 -7.725304 9.443039
v -62.031349 -3.674151 9.443039
vn -0.0000 -1.0000 -0.0000
vn 1.0000 -0.0000 -0.0000
vn -0.0000 1.0000 -0.0000
vn -0.0000 -0.0000 -1.0000
vn -0.0000 -0.0000 1.0000
vn -1.0000 -0.0000 -0.0000
vt 5.949882 -5.200737
vt 5.949880 -2.582105
vt 5.603976 -2.582105
vt 5.603977 -5.200738
vt 5.248840 0.255151
vt 5.248840 -5.200737
vt 5.603977 -5.200737
vt 5.603977 0.255151
vt 4.884470 3.621225
vt 4.538565 3.621226
vt 4.538564 0.485437
vt 4.884469 0.485437
vt -2.366714 -4.960169
vt -4.850948 -4.960169
vt -5.096254 -5.200738
vt -2.121407 -5.200738
vt 0.608133 -4.960169
vt -1.876100 -4.960169
vt 0.853440 -5.200738
vt 0.608133 0.495719
vt 0.853440 0.485436
vt -1.876100 0.495719
vt -2.121407 0.485436
vt -2.366714 0.495719
vt -4.850948 0.495719
vt -5.096254 0.485436
vt 3.828288 0.485436
vt 3.828288 -5.200738
vt 4.183426 -5.200738
vt 4.183426 0.485436
vt 4.183425 0.485436
vt 4.183425 -5.200738
vt 4.538564 -5.200738
vt 4.538564 0.485436
vt 5.248840 5.711039
vt 5.603977 5.711039
s 0
f 87/190/20 89/191/20 93/192/20 91/193/20
f 86/194/21 87/195/21 91/196/21 90/197/21
f 98/198/22 97/199/22 96/200/22 101/201/22
f 89/202/23 87/203/23 96/204/23 97/205/23
f 91/206/24 93/207/24 98/205/24 101/208/24
f 90/209/24 91/206/24 101/208/24 100/210/24
f 93/207/24 92/211/24 99/212/24 98/205/24
f 88/213/23 89/202/23 97/205/23 94/212/23
f 87/203/23 86/214/23 95/215/23 96/204/23
f 100/216/25 101/217/25 96/218/25 95/219/25
f 94/220/21 97/221/21 98/222/21 99/223/21
f 92/224/25 93/194/25 89/197/25 88/225/25
g front_door.002_Plane.069
v -66.748337 -3.757145 -24.878885
v -66.748337 -7.632220 -24.878885
v -64.763382 -3.757145 -24.878885
v -64.763382 -7.632220 -24.878885
vn -0.0000 -0.0000 -1.0000
vt -0.612906 -0.598265
vt 0.500000 -0.598265
vt 0.500000 1.574377
vt -0.612906 1.574377
s 0
f 102/226/26 104/227/26 105/228/26 103/229/26
g door.003_Plane.070
v -61.928894 -3.757145 9.393089
v -61.928894 -7.632220 9.393089
v -59.943939 -3.757145 9.393089
v -59.943939 -7.632220 9.393089
vn -0.0000 -0.0000 1.0000
vt 1.612906 -0.598265
vt 1.612906 1.574377
vt 0.500000 1.574377
vt 0.500000 -0.598265
s 0
f 106/230/27 107/231/27 109/232/27 108/233/27
g chimney_Cube.155
v -63.938801 -0.458854 -15.435046
v -63.938801 3.541148 -15.435046
v -63.938801 -0.458854 -14.447219
v -63.938801 3.541148 -14.447219
v -64.926628 -0.458854 -15.435046
v -64.926628 3.541148 -15.435046
v -64.926628 -0.458854 -14.447219
v -64.926628 3.541148 -14.447219
vn 1.0000 -0.0000 -0.0000
vn -0.0000 -0.0000 1.0000
vn -1.0000 -0.0000 -0.0000
vn -0.0000 -0.0000 -1.0000
vn -0.0000 -1.0000 -0.0000
vn -0.0000 1.0000 -0.0000
vt -0.968715 1.594379
vt -0.968715 -0.784521
vt -0.381229 -0.784521
vt -0.381229 1.594379
vt 0.206257 -0.784521
vt 0.206257 1.594379
vt 0.793743 -0.784521
vt 0.793743 1.594379
vt 0.793743 1.594379
vt 0.793743 -0.784521
vt 1.381229 -0.784521
vt 1.381229 1.594379
vt 1.968715 -0.197035
vt 1.381229 -0.197035
vt 1.381229 -0.784521
vt 1.968715 -0.784521
vt 1.968715 0.390451
vt 1.381229 0.390451
s 0
f 110/234/28 111/235/28 113/236/28 112/237/28
f 112/237/29 113/236/29 117/238/29 116/239/29
f 116/239/30 117/238/30 115/240/30 114/241/30
f 114/242/31 115/243/31 111/244/31 110/245/31
f 112/246/32 116/247/32 114/248/32 110/249/32
f 117/250/33 113/251/33 111/247/33 115/246/33
g roof.003_Cube.156
v -63.798065 -1.583587 9.542970
v -58.121513 -1.583587 9.542970
v -58.121513 -1.583587 0.779412
v -63.798065 -1.583587 5.688951
v -67.371239 -1.201357 0.779412
v -67.371239 -1.583587 5.688951
v -60.959789 -1.201357 9.542970
v -60.959789 -1.201357 3.234181
v -67.371239 -1.201357 3.234181
v -63.763355 -1.922486 9.542970
v -58.156223 -1.922486 9.542970
v -58.141205 -1.923976 0.784796
v -63.780293 -1.923744 5.676840
v -67.377563 -1.542185 0.789553
v -67.371239 -1.922900 5.664289
v -60.959789 -1.542585 9.542970
v -60.971340 -1.542327 3.234614
v -67.374413 -1.542399 3.226900
v -68.164230 -1.143159 -22.850613
v -62.904148 -1.143159 -22.850613
v -68.164230 -1.143159 -10.445345
v -62.904148 3.114191 -10.445345
v -62.904148 3.114191 -17.262629
v -62.904148 -1.143158 -10.445345
v -68.164230 -1.143159 1.959923
v -62.904152 -1.143159 1.959923
v -62.904148 3.114191 -3.628060
v -57.644070 -1.143159 -22.850613
v -57.644070 -1.143159 -10.445345
v -57.644070 -1.143159 1.959923
v -58.354908 -1.125683 -24.869017
v -58.354908 -1.125683 -20.727039
v -67.434563 -1.125683 -24.869017
v -67.434563 -1.125683 -20.727039
v -58.354908 -1.458286 -24.869017
v -58.354908 -1.458286 -20.727039
v -67.434563 -1.458286 -24.869017
v -67.434563 -1.458286 -20.727039
vn 0.0243 0.9977 -0.0636
vn -0.1335 0.9911 -0.0000
vn 0.1335 0.9911 -0.0000
vn -0.0000 0.9881 0.1539
vn -0.0244 -0.9977 0.0638
vn 0.1343 -0.9909 -0.0003
vn -0.1339 -0.9910 0.0001
vn 0.0002 -0.9880 -0.1541
vn -0.0000 -0.0000 1.0000
vn -0.0012 -0.0227 -0.9997
vn -0.0018 -0.0541 0.9985
vn -0.9999 0.0139 0.0006
vn -0.9970 -0.0771 0.0022
vn 0.9968 -0.0798 0.0009
vn -1.0000 0.0046 0.0014
vn -0.0000 0.7954 -0.6060
vn -0.6291 0.7773 -0.0000
vn -0.0000 -1.0000 -0.0000
vn -0.0000 0.7954 0.6060
vn 0.6291 0.7773 -0.0000
vn -0.0000 1.0000 -0.0000
vn 1.0000 -0.0000 -0.0000
vn -1.0000 -0.0000 -0.0000
vn -0.0000 -0.0000 -1.0000
vt 1.140851 -2.327747
vt 3.344812 -2.326131
vt 4.331492 -1.503098
vt 1.151247 -1.503097
vt 3.343515 -2.277373
vt 4.149693 -3.289129
vt 5.410741 -3.305886
vt 5.407773 -2.304804
vt 5.409375 -2.304726
vt 4.607687 -1.291752
vt 2.543428 -1.264433
vt 2.541904 -2.266778
vt 1.132340 -3.157662
vt 2.360633 -3.156761
vt 3.346084 -2.329064
vt 1.142122 -2.330680
vt 4.609810 -1.254918
vt 5.407332 -1.245136
vt 5.407628 2.015333
vt 4.607286 1.005104
vt 2.543136 0.980981
vt 2.541880 -0.008240
vt 3.806908 0.003065
vt 2.541880 1.970879
vt 3.811017 -1.264356
vt -0.500467 4.541607
vt 0.699403 4.698969
vt 0.684728 4.838501
vt -0.500467 4.682095
vt 0.699403 4.404644
vt -3.214047 4.404646
vt -3.211368 4.264250
vt 0.696430 4.264275
vt -3.251278 -2.959454
vt -1.740733 -2.959462
vt -1.740728 -2.819624
vt -3.258786 -2.819337
vt -2.775479 -3.591752
vt -1.740728 -3.513030
vt -1.755639 -3.373473
vt -2.783057 -3.451532
vt -1.740744 -2.959462
vt -3.370017 -2.959486
vt -3.375126 -3.099638
vt -1.740728 -3.099200
vt 4.845164 4.463852
vt 8.549919 4.463787
vt 8.549930 4.603793
vt 4.847445 4.604220
vt -1.700338 4.698983
vt -1.685663 4.838514
vt -3.822171 -3.513561
vt -3.822372 -3.373473
vt -0.980489 -4.500682
vt -2.734508 -2.624549
vt -2.741494 -4.525446
vt -4.197876 0.678723
vt -6.025229 -1.122118
vt -1.857499 -1.122119
vt -1.907509 0.678723
vt 3.375831 -3.591754
vt 8.492390 -3.591754
vt 8.521156 -1.371947
vt 3.404602 -1.371946
vt -4.502500 2.078462
vt -2.741494 2.103226
vt -2.748481 4.057287
vt 0.382857 0.678723
vt 2.310232 -1.122118
vt -1.711957 -1.371946
vt -1.740728 -3.591754
vt -4.502499 -4.550210
vt -1.326366 0.636368
vt -3.616732 0.636368
vt -3.618504 -1.178818
vt 0.549227 -1.178819
vt 3.433372 0.847861
vt 8.549930 0.847860
vt -0.980489 2.127989
vt -5.907100 0.636368
vt -7.786235 -1.178818
vt -1.683185 0.847862
vt 4.789375 4.322822
vt 1.668205 4.322822
vt 1.649644 2.931388
vt 4.770813 2.931387
vt 3.897137 2.015333
vt 5.252428 2.033849
vt 5.252428 5.238646
vt 3.897137 5.220129
vt -3.491729 -3.236480
vt -1.740728 -3.236513
vt -1.740728 -3.099671
vt -3.491735 -3.099638
vt -3.138988 4.404667
vt 0.699403 4.404646
vt 0.699403 4.541582
vt -3.138988 4.541607
vt -3.491729 -3.236540
vt -3.491729 -3.373473
vt -1.740728 -3.373449
vt 4.620980 4.596830
vt 0.782592 4.596807
vt 0.782592 4.459865
vt 4.620980 4.459889
s 0
f 126/252/34 125/253/34 120/254/34 122/255/34
f 125/256/35 121/257/35 118/258/35 124/259/35
f 120/260/36 125/261/36 124/262/36 119/263/36
f 123/264/37 121/265/37 125/266/37 126/267/37
f 135/268/38 131/269/38 129/270/38 134/271/38
f 134/271/39 133/272/39 127/273/39 130/274/39
f 129/270/40 128/275/40 133/272/40 134/271/40
f 132/276/41 135/268/41 134/271/41 130/274/41
f 124/277/42 118/278/42 127/279/42 133/280/42
f 122/281/43 120/282/43 129/283/43 131/284/43
f 121/285/44 123/286/44 132/287/44 130/288/44
f 126/289/45 122/290/45 131/291/45 135/292/45
f 118/293/46 121/294/46 130/295/46 127/296/46
f 120/297/47 119/298/47 128/299/47 129/300/47
f 119/301/42 124/277/42 133/280/42 128/302/42
f 123/303/48 126/289/48 135/292/48 132/304/48
f 136/305/49 140/306/49 137/307/49
f 140/308/50 136/309/50 138/310/50 139/311/50
f 138/312/51 136/313/51 137/314/51 141/315/51
f 142/316/52 143/317/52 144/318/52
f 144/319/50 139/311/50 138/310/50 142/320/50
f 138/312/51 141/315/51 143/321/51 142/322/51
f 145/323/49 137/307/49 140/306/49
f 140/324/53 139/325/53 146/326/53 145/327/53
f 146/328/51 141/315/51 137/314/51 145/329/51
f 147/330/52 144/318/52 143/317/52
f 144/331/53 147/332/53 146/326/53 139/325/53
f 146/328/51 147/333/51 143/321/51 141/315/51
f 151/334/54 149/335/54 148/336/54 150/337/54
f 155/338/51 154/339/51 152/340/51 153/341/51
f 148/342/55 149/343/55 153/344/55 152/345/55
f 149/346/42 151/347/42 155/348/42 153/349/42
f 151/343/56 150/350/56 154/351/56 155/352/56
f 150/353/57 148/354/57 152/355/57 154/356/57
