# Blender 3.6.1
# www.blender.org
g frame.115_Cube.168
v -58.833084 -4.641567 34.688923
v -62.027672 -4.641568 34.688923
v -58.833084 -8.413113 34.688923
v -62.027672 -8.413113 34.688923
v -58.833084 -4.641567 35.031780
v -62.027672 -4.641568 35.031780
v -58.833084 -8.413113 35.031780
v -62.027672 -8.413113 35.031780
v -58.694920 -8.520609 34.688923
v -58.694920 -4.534070 34.688923
v -62.165836 -4.534071 34.688923
v -62.165836 -8.520610 34.688923
v -62.165836 -8.520610 35.031780
v -58.694920 -8.520609 35.031780
v -58.694920 -4.534070 35.031780
v -62.165836 -4.534071 35.031780
v -60.358212 -4.534071 34.688923
v -60.502544 -4.534071 34.688923
v -60.502544 -4.534071 35.031780
v -60.358212 -4.534071 35.031780
v -60.363956 -4.641568 34.688923
v -60.496799 -4.641568 34.688923
v -60.496796 -8.413113 34.688923
v -60.363956 -8.413113 34.688923
v -60.496796 -8.413113 35.031780
v -60.363956 -8.413113 35.031780
v -60.496799 -4.641568 35.031780
v -60.363956 -4.641568 35.031780
vn 1.0000 -0.0000 -0.0000
vn -0.0000 1.0000 -0.0000
vn -1.0000 -0.0000 -0.0000
vn -0.0000 -0.0000 -1.0000
vn -0.0000 -0.0000 1.0000
vn -0.0000 -1.0000 -0.0000
vt 3.158405 -0.159544
vt 3.433901 -0.159544
vt 3.433900 2.951906
vt 3.158404 2.951906
vt 3.977733 1.249269
vt 3.709399 1.249269
vt 3.709399 -0.159545
vt 3.977732 -0.159545
vt 2.607409 0.017822
vt 2.607409 -3.270995
vt 2.882906 -3.270995
vt 2.882905 0.017822
vt 2.607409 3.306638
vt 2.882906 3.306638
vt 2.220891 0.106506
vt 2.331911 0.017822
vt 2.331912 3.306640
vt 2.220892 3.217956
vt 0.990789 0.106506
vt 0.995405 0.017823
vt -0.346057 3.217957
vt -0.457077 3.306640
vt -0.457078 0.017823
vt -0.346059 0.106506
vt -0.346059 -0.070861
vt -0.457078 0.017822
vt -0.457077 -3.270995
vt -0.346058 -3.182312
vt 2.220892 -3.182311
vt 2.331912 -3.270994
vt 2.331911 0.017823
vt 2.220891 -0.070860
vt 0.990788 -3.182312
vt 0.995405 -3.270994
vt 0.879429 -3.270994
vt 0.884045 -3.182312
vt 0.879430 0.017823
vt 0.884046 0.106506
vt 3.977733 2.780330
vt 3.709399 2.780330
vt 3.709399 1.371518
vt 3.977733 1.371518
vt 3.433902 -0.159544
vt 3.433901 -3.270995
vt 3.709398 -3.270995
vt 3.709398 -0.159544
vt 0.884045 -0.070861
vt 0.990787 -0.070861
vt 3.702235 4.248559
vt 3.433902 4.248559
vt 3.433902 2.951905
vt 3.702235 2.951906
vt 0.990789 3.217957
vt 0.884047 3.217957
vt 3.977734 -3.270995
vt 4.246068 -3.270995
vt 4.246068 -1.974342
vt 3.977733 -1.974342
vt 3.709398 2.951906
vt 3.433902 2.951906
vt 3.709398 -0.159544
s 0
f 2/1/1 6/2/1 8/3/1 4/4/1
f 19/5/2 18/6/2 11/7/2 16/8/2
f 9/9/1 10/10/1 15/11/1 14/12/1
f 13/13/3 16/9/3 11/12/3 12/14/3
f 1/15/4 10/16/4 9/17/4 3/18/4
f 21/19/4 17/20/4 10/16/4 1/15/4
f 4/21/4 12/22/4 11/23/4 2/24/4
f 7/25/5 14/26/5 15/27/5 5/28/5
f 6/29/5 16/30/5 13/31/5 8/32/5
f 27/33/5 19/34/5 16/30/5 6/29/5
f 5/28/5 15/27/5 20/35/5 28/36/5
f 28/36/5 20/35/5 19/34/5 27/33/5
f 2/24/4 11/23/4 18/37/4 22/38/4
f 22/38/4 18/37/4 17/20/4 21/19/4
f 15/39/2 10/40/2 17/41/2 20/42/2
f 20/42/2 17/41/2 18/6/2 19/5/2
f 25/43/3 27/44/3 22/45/3 23/46/3
f 26/47/5 28/36/5 27/33/5 25/48/5
f 22/49/6 27/50/6 6/51/6 2/52/6
f 21/19/4 24/53/4 23/54/4 22/38/4
f 28/55/6 21/56/6 1/57/6 5/58/6
f 3/59/3 7/60/3 5/2/3 1/61/3
g mini-houses_pair_Cube.037
v -49.898811 -8.508199 27.027946
v -49.898811 -2.230011 27.027946
v -49.898811 -8.508199 34.920963
v -49.898811 -2.230011 34.920963
v -56.689102 -8.508199 27.027946
v -56.689102 -2.230011 27.027946
v -56.689102 -8.508199 34.920963
v -56.689102 -2.230011 34.920963
v -53.293957 -8.508199 34.920963
v -53.293957 0.720188 34.920963
v -53.293957 -8.508199 27.027946
v -53.293957 0.720188 27.027946
v -56.688770 -8.508200 25.381638
v -56.688770 -2.230011 25.381638
v -56.688770 -8.508200 34.836697
v -56.688770 -2.230011 34.836697
v -64.129517 -8.508200 25.381638
v -64.129517 -2.230011 25.381638
v -64.129517 -8.508200 34.836697
v -64.129517 -2.230011 34.836697
v -60.409142 -8.508200 34.836697
v -60.409142 1.761437 34.836697
v -60.409142 -8.508200 25.381638
v -60.409142 1.761437 25.381638
v -50.440937 -8.542006 25.516577
v -50.440937 -2.442895 25.516577
v -50.440937 -8.542006 27.399780
v -50.440937 -2.442895 27.399780
v -56.802231 -8.542006 25.516577
v -56.802231 -2.442895 25.516577
v -56.802231 -8.542006 27.399780
v -56.802231 -2.442895 27.399780
vn 1.0000 -0.0000 -0.0000
vn -0.0000 -0.0000 1.0000
vn -1.0000 -0.0000 -0.0000
vn -0.0000 -0.0000 -1.0000
vn -0.0000 -1.0000 -0.0000
vt 7.760668 9.786338
vt 3.736894 9.786338
vt 3.736894 4.311574
vt 7.760668 4.311574
vt 2.819594 -2.626458
vt 2.819594 -8.861036
vt 5.053673 -6.867919
vt 5.053673 -2.626458
vt 9.077447 -3.386272
vt 5.053674 -3.386272
vt 5.053674 -8.861036
vt 9.077447 -8.861036
vt 5.970971 4.311575
vt 5.970971 -1.923003
vt 8.205051 0.070113
vt 8.205051 4.311575
vt 1.074800 9.797132
vt -1.159280 9.797132
vt -1.159280 4.464712
vt 1.074800 4.464712
vt 3.308879 9.797132
vt 3.308879 4.464712
vt 3.736892 4.311575
vt 3.736892 0.070113
vt 0.585513 -2.626458
vt 0.585513 -6.867919
vt -1.159280 4.635226
vt -5.183054 4.635226
vt -5.183054 -1.923002
vt -1.159280 -1.923002
vt -6.758742 -1.923002
vt -6.758742 -8.861036
vt -4.310658 -6.164466
vt -4.310658 -1.923002
vt -9.206829 4.635226
vt -9.206829 -1.923002
vt -1.862572 -1.923002
vt -1.862572 -8.861036
vt 0.585513 -6.164466
vt 0.585513 -1.923002
vt 1.288807 4.464713
vt -1.159279 4.464713
vt -1.159279 -1.923002
vt 1.288807 -1.923002
vt 3.736892 4.464713
vt 3.736892 -1.923002
vt -9.206829 -6.164466
vt 8.205051 2.197478
vt 8.205051 -1.923002
vt 9.444242 -1.923002
vt 9.444242 2.197478
vt -5.297827 9.047553
vt -9.206829 9.047553
vt -9.206829 4.635225
vt -5.297827 4.635225
vt 8.967639 8.432055
vt 8.967639 4.311575
vt 10.206830 4.311575
vt 10.206830 8.432055
vt -1.388827 9.047553
vt -5.297829 9.047553
vt -5.297829 4.635226
vt -1.388828 4.635226
vt 8.967637 4.311578
vt 8.967637 8.723905
vt 7.760665 8.723905
vt 7.760665 4.311578
s 0
f 29/62/7 30/63/7 32/64/7 31/65/7
f 37/66/8 38/67/8 36/68/8 35/69/8
f 35/70/9 36/71/9 34/72/9 33/73/9
f 39/74/10 40/75/10 30/76/10 29/77/10
f 37/78/11 35/79/11 33/80/11 39/81/11
f 31/82/11 37/78/11 39/81/11 29/83/11
f 33/84/10 34/85/10 40/75/10 39/74/10
f 31/86/8 32/87/8 38/67/8 37/66/8
f 41/88/7 42/89/7 44/90/7 43/91/7
f 49/92/8 50/93/8 48/94/8 47/95/8
f 47/89/9 48/96/9 46/97/9 45/90/9
f 51/98/10 52/99/10 42/100/10 41/101/10
f 49/102/11 47/103/11 45/104/11 51/105/11
f 43/106/11 49/102/11 51/105/11 41/107/11
f 45/95/10 46/94/10 52/99/10 51/98/10
f 43/97/8 44/108/8 50/93/8 49/92/8
f 53/109/7 54/110/7 56/111/7 55/112/7
f 55/113/8 56/114/8 60/115/8 59/116/8
f 59/117/9 60/118/9 58/119/9 57/120/9
f 57/121/10 58/122/10 54/123/10 53/124/10
f 55/125/11 59/126/11 57/127/11 53/128/11
g door.006_Plane.076
v -62.098930 -4.595449 34.965858
v -58.769958 -4.595450 34.965858
v -62.098930 -8.467520 34.965858
v -58.769958 -8.467520 34.965858
vn -0.0000 -0.0000 1.0000
vt 2.202845 -0.699539
vt 2.202845 1.281110
vt 0.500000 1.281111
vt 0.500000 -0.699539
s 0
f 61/129/12 63/130/12 64/131/12 62/132/12
g frame.114_Cube.169
v -51.696381 -4.641567 34.688923
v -54.890968 -4.641568 34.688923
v -51.696381 -8.413113 34.688923
v -54.890968 -8.413113 34.688923
v -51.696381 -4.641567 35.031780
v -54.890968 -4.641568 35.031780
v -51.696381 -8.413113 35.031780
v -54.890968 -8.413113 35.031780
v -51.558216 -8.520609 34.688923
v -51.558216 -4.534070 34.688923
v -55.029133 -4.534071 34.688923
v -55.029133 -8.520610 34.688923
v -55.029133 -8.520610 35.031780
v -51.558216 -8.520609 35.031780
v -51.558216 -4.534070 35.031780
v -55.029133 -4.534071 35.031780
v -53.221508 -4.534071 34.688923
v -53.365841 -4.534071 34.688923
v -53.365841 -4.534071 35.031780
v -53.221508 -4.534071 35.031780
v -53.227253 -4.641568 34.688923
v -53.360096 -4.641568 34.688923
v -53.360092 -8.413113 34.688923
v -53.227253 -8.413113 34.688923
v -53.360092 -8.413113 35.031780
v -53.227253 -8.413113 35.031780
v -53.360096 -4.641568 35.031780
v -53.227253 -4.641568 35.031780
vn 1.0000 -0.0000 -0.0000
vn -0.0000 1.0000 -0.0000
vn -1.0000 -0.0000 -0.0000
vn -0.0000 -0.0000 -1.0000
vn -0.0000 -0.0000 1.0000
vn -0.0000 -1.0000 -0.0000
vt 2.331913 0.017823
vt 2.607409 0.017823
vt 2.607408 3.129273
vt 2.331911 3.129273
vt 3.977732 -1.862182
vt 3.709399 -1.862182
vt 3.709398 -3.270995
vt 3.977732 -3.270995
vt 2.331911 0.017822
vt 2.331913 -3.270995
vt 2.607409 -3.270995
vt 2.607408 0.017822
vt 2.882907 0.017821
vt 2.882906 -3.270995
vt 3.158403 -3.270995
vt 3.158403 0.017821
vt -0.568098 0.106506
vt -0.457079 0.017822
vt -0.457078 3.306640
vt -0.568097 3.217956
vt -1.798201 0.106506
vt -1.793585 0.017823
vt -3.135047 3.217957
vt -3.246067 3.306640
vt -3.246067 0.017823
vt -3.135048 0.106506
vt -3.135048 -0.070861
vt -3.246067 0.017822
vt -3.246067 -3.270995
vt -3.135047 -3.182312
vt -0.568097 -3.182311
vt -0.457078 -3.270994
vt -0.457079 0.017823
vt -0.568098 -0.070860
vt -1.798202 -3.182312
vt -1.793585 -3.270994
vt -1.909561 -3.270994
vt -1.904944 -3.182312
vt -1.909560 0.017823
vt -1.904944 0.106506
vt 3.977733 -0.331120
vt 3.709399 -0.331120
vt 3.709399 -1.739932
vt 3.977732 -1.739932
vt 2.882907 3.129272
vt 2.882906 0.017822
vt 3.158403 0.017822
vt 3.158404 3.129272
vt -1.904945 -0.070861
vt -1.798203 -0.070861
vt 3.977732 4.076984
vt 3.709399 4.076984
vt 3.709399 2.780330
vt 3.977733 2.780330
vt -1.798200 3.217957
vt -1.904943 3.217957
vt 3.165569 2.951905
vt 3.433902 2.951905
vt 3.433902 4.248558
vt 3.165568 4.248558
vt 3.433901 -0.159544
vt 3.158404 -0.159544
vt 3.158404 -3.270995
vt 3.433900 -3.270995
s 0
f 66/133/13 70/134/13 72/135/13 68/136/13
f 83/137/14 82/138/14 75/139/14 80/140/14
f 73/141/13 74/142/13 79/143/13 78/144/13
f 77/145/15 80/146/15 75/147/15 76/148/15
f 65/149/16 74/150/16 73/151/16 67/152/16
f 85/153/16 81/154/16 74/150/16 65/149/16
f 68/155/16 76/156/16 75/157/16 66/158/16
f 71/159/17 78/160/17 79/161/17 69/162/17
f 70/163/17 80/164/17 77/165/17 72/166/17
f 91/167/17 83/168/17 80/164/17 70/163/17
f 69/162/17 79/161/17 84/169/17 92/170/17
f 92/170/17 84/169/17 83/168/17 91/167/17
f 66/158/16 75/157/16 82/171/16 86/172/16
f 86/172/16 82/171/16 81/154/16 85/153/16
f 79/173/14 74/174/14 81/175/14 84/176/14
f 84/176/14 81/175/14 82/138/14 83/137/14
f 89/177/15 91/178/15 86/179/15 87/180/15
f 90/181/17 92/170/17 91/167/17 89/182/17
f 86/183/18 91/184/18 70/185/18 66/186/18
f 85/153/16 88/187/16 87/188/16 86/172/16
f 92/189/18 85/190/18 65/191/18 69/192/18
f 67/193/15 71/194/15 69/195/15 65/196/15
g door.007_Plane.077
v -54.962219 -4.595449 34.965858
v -51.633247 -4.595450 34.965858
v -54.962219 -8.467520 34.965858
v -51.633247 -8.467520 34.965858
vn -0.0000 -0.0000 1.0000
vt 0.500000 -0.699539
vt 0.500000 1.281110
vt -1.202845 1.281111
vt -1.202845 -0.699539
s 0
f 93/197/19 95/198/19 96/199/19 94/200/19
g roof.005_Cube.039
v -49.735275 -2.240312 26.684744
v -49.735275 -2.240312 35.264141
v -56.843807 -2.240312 26.684744
v -56.843807 -2.240312 35.264141
v -53.289539 0.848155 35.264141
v -53.289539 0.848155 26.684744
v -49.845692 -2.392897 26.684744
v -49.845692 -2.392897 35.264141
v -56.733387 -2.392897 26.684744
v -56.733387 -2.392897 35.264141
v -53.289539 0.599622 35.264141
v -53.289539 0.599622 26.684744
v -56.663692 -2.238565 25.000628
v -56.663692 -2.238565 35.217670
v -64.313538 -2.238565 25.000628
v -64.313538 -2.238565 35.217670
v -60.418800 1.939950 35.217670
v -60.418800 1.939950 25.000628
v -56.808533 -2.368730 25.000628
v -56.808533 -2.368730 35.217670
v -64.171082 -2.371342 25.000628
v -64.171082 -2.371342 35.217670
v -60.421421 1.651528 35.217670
v -60.421421 1.651528 25.000628
v -50.269253 -2.442889 25.386421
v -50.269253 -2.442889 27.371281
v -56.973923 -2.442889 25.386421
v -56.973923 -2.442889 27.371281
v -50.269253 -2.829906 25.386421
v -50.269253 -2.829906 27.371281
v -56.973923 -2.829906 25.386421
v -56.973923 -2.829906 27.371281
vn 0.6559 0.7548 -0.0000
vn -0.6559 0.7548 -0.0000
vn -0.6559 -0.7548 -0.0000
vn 0.6559 -0.7548 -0.0000
vn 0.8101 -0.5863 -0.0000
vn -0.0000 -0.0000 1.0000
vn -0.8101 -0.5863 -0.0000
vn -0.0000 -0.0000 -1.0000
vn 0.7438 0.6684 -0.0000
vn -0.7315 0.6818 -0.0000
vn -0.7438 -0.6684 -0.0000
vn 0.7315 -0.6818 -0.0000
vn 0.6684 -0.7438 -0.0000
vn -0.6818 -0.7315 -0.0000
vn -0.0000 1.0000 -0.0000
vn -0.0000 -1.0000 -0.0000
vn 1.0000 -0.0000 -0.0000
vn -1.0000 -0.0000 -0.0000
vt -0.625641 1.819863
vt -0.625641 0.518297
vt 1.813816 0.518297
vt 1.813816 1.819863
vt 0.545762 0.517959
vt 0.545762 1.820202
vt -1.893695 1.820202
vt -1.893695 0.517959
vt 1.873615 -0.561285
vt 1.873615 -3.065861
vt 3.098541 -3.065861
vt 3.098541 -0.561285
vt 2.453909 -0.083208
vt 2.453909 2.421368
vt 1.227951 2.421368
vt 1.227951 -0.083208
vt 2.504272 2.421368
vt 2.504272 -0.083208
vt 2.554571 -0.083208
vt 2.554571 2.421368
vt 3.428831 0.954386
vt 2.595730 1.991980
vt 2.554571 1.959746
vt 3.361790 0.954386
vt 2.453910 2.421369
vt 2.453910 -0.083207
vt 2.504272 -0.083207
vt 2.504272 2.421369
vt 3.972800 -2.028267
vt 3.139700 -0.990673
vt 3.098541 -1.022907
vt 3.905760 -2.028267
vt 2.595730 -0.083208
vt 2.554571 -0.050973
vt 3.139700 -3.065861
vt 3.098541 -3.033626
vt -1.923238 -0.798085
vt -1.923238 -2.350984
vt 0.981866 -2.350985
vt 0.981866 -0.798085
vt -0.543749 -2.364425
vt -0.543749 -0.784644
vt -3.448853 -0.784644
vt -3.448853 -2.364424
vt -2.765654 2.899446
vt -2.765654 -0.083208
vt -1.308159 -0.083208
vt -1.308159 2.899445
vt 1.768789 -3.065861
vt 1.768789 -0.083208
vt 0.285576 -0.083208
vt 0.285576 -3.065861
vt 1.821218 -0.083208
vt 1.821218 -3.065861
vt 1.873615 -0.083208
vt 0.222486 2.421368
vt 0.222486 4.065862
vt 0.169220 4.064386
vt 0.169220 2.481148
vt 1.768789 -0.083208
vt 1.768789 -3.065861
vt 1.821218 -0.083208
vt 2.554571 1.991981
vt 4.085216 2.092451
vt 4.080511 2.148426
vt 2.607838 2.051761
vt -1.308159 2.521839
vt -1.303454 2.577813
vt 2.554571 3.636474
vt 2.607838 3.634999
vt -0.053692 2.725966
vt 2.147761 2.725966
vt 2.147761 3.488096
vt -0.053692 3.488096
vt 0.222486 2.500540
vt 0.772185 2.500540
vt 0.772185 3.824609
vt 0.222486 3.824609
vt 0.772185 2.421368
vt 3.428831 1.874081
vt 3.428831 -0.083208
vt 3.533227 -0.083208
vt 3.533227 1.874081
vt 1.321885 3.000807
vt 1.321885 2.421368
vt 1.397651 2.421368
vt 1.397651 3.000807
vt 3.533226 1.874081
vt 3.533226 -0.083208
vt 3.637623 -0.083208
vt 3.637623 1.874081
s 0
f 101/201/20 98/202/20 97/203/20 102/204/20
f 100/205/21 101/206/21 102/207/21 99/208/21
f 107/209/22 108/210/22 103/211/22 104/212/22
f 106/213/23 105/214/23 108/215/23 107/216/23
f 97/217/24 98/218/24 104/219/24 103/220/24
f 101/221/25 100/222/25 106/223/25 107/224/25
f 100/225/26 99/226/26 105/227/26 106/228/26
f 102/229/27 97/230/27 103/231/27 108/232/27
f 98/233/25 101/221/25 107/224/25 104/234/25
f 99/235/27 102/229/27 108/232/27 105/236/27
f 113/237/28 110/238/28 109/239/28 114/240/28
f 112/241/29 113/242/29 114/243/29 111/244/29
f 119/245/30 120/246/30 115/247/30 116/248/30
f 118/249/31 117/250/31 120/251/31 119/252/31
f 109/253/32 110/254/32 116/210/32 115/255/32
f 113/256/25 112/257/25 118/258/25 119/259/25
f 112/260/33 111/261/33 117/254/33 118/262/33
f 114/263/27 109/264/27 115/265/27 120/266/27
f 110/267/25 113/256/25 119/259/25 116/268/25
f 111/269/27 114/263/27 120/266/27 117/270/27
f 121/271/34 123/272/34 124/273/34 122/274/34
f 125/275/35 126/276/35 128/277/35 127/278/35
f 121/256/36 122/279/36 126/276/36 125/275/36
f 122/280/25 124/281/25 128/282/25 126/283/25
f 124/284/37 123/285/37 127/286/37 128/287/37
f 123/288/27 121/289/27 125/290/27 127/291/27
g wall_strip_Cube.030
v -49.904079 -2.497269 34.725327
v -49.904079 -2.127285 34.725327
v -49.904079 -2.497269 34.965622
v -49.904079 -2.127285 34.965622
v -56.691387 -2.497269 34.725327
v -56.691387 -2.127285 34.725327
v -56.691387 -2.497269 34.965622
v -56.691387 -2.127285 34.965622
v -56.694481 -2.497270 34.627266
v -56.694481 -2.127285 34.627266
v -56.694481 -2.497270 34.867561
v -56.694481 -2.127285 34.867561
v -64.122284 -2.497270 34.627266
v -64.122284 -2.127285 34.627266
v -64.122284 -2.497270 34.867561
v -64.122284 -2.127285 34.867561
vn 1.0000 -0.0000 -0.0000
vn -0.0000 -0.0000 1.0000
vn -1.0000 -0.0000 -0.0000
vn -0.0000 -0.0000 -1.0000
vn -0.0000 -1.0000 -0.0000
vn -0.0000 1.0000 -0.0000
vt 1.205184 -2.890472
vt 1.205184 -3.254806
vt 1.435660 -3.254806
vt 1.435660 -2.890472
vt 0.410580 3.607257
vt 0.064945 3.607257
vt 0.064945 -3.254806
vt 0.410580 -3.254806
vt 1.205184 -2.526137
vt 1.435660 -2.526137
vt 0.756215 3.607257
vt 0.410580 3.607257
vt 0.410580 -3.254806
vt 0.756215 -3.254806
vt 0.980699 -3.254806
vt 0.980700 3.607257
vt 0.756216 3.607257
vt 0.756215 -3.254806
vt 1.205184 3.607257
vt 0.980700 3.607257
vt 0.980700 -3.254806
vt 1.205184 -2.161803
vt 1.205184 -2.526137
vt 1.435660 -2.161803
vt -0.729659 4.254806
vt -1.075294 4.254806
vt -1.075294 -3.254806
vt -0.729659 -3.254806
vt 1.205184 -1.797469
vt 1.205184 -2.161803
vt 1.435660 -2.161803
vt 1.435660 -1.797469
vt -0.384024 4.254806
vt -0.729659 4.254806
vt -0.729659 -3.254806
vt -0.384024 -3.254806
vt -0.159540 -3.254806
vt -0.159540 4.254806
vt -0.384023 4.254806
vt -0.384024 -3.254806
vt 0.064944 -3.254806
vt 0.064945 4.254806
vt -0.159539 4.254806
vt -0.159540 -3.254806
s 0
f 129/292/38 130/293/38 132/294/38 131/295/38
f 131/296/39 132/297/39 136/298/39 135/299/39
f 135/300/40 136/292/40 134/295/40 133/301/40
f 133/302/41 134/303/41 130/304/41 129/305/41
f 131/306/42 135/307/42 133/308/42 129/309/42
f 136/293/43 132/310/43 130/311/43 134/312/43
f 137/313/38 138/314/38 140/301/38 139/315/38
f 139/316/39 140/317/39 144/318/39 143/319/39
f 143/320/40 144/321/40 142/322/40 141/323/40
f 141/324/41 142/325/41 138/326/41 137/327/41
f 139/328/42 143/329/42 141/330/42 137/331/42
f 144/332/43 140/333/43 138/334/43 142/335/43
