# Blender 3.6.3
# www.blender.org
g fence_Cube.150
v -17.054295 -0.495262 -6.866232
v -17.054295 -0.430765 -6.866232
v -17.054295 -0.495262 -6.834393
v -17.054295 -0.430765 -6.834393
v -28.100554 -0.495262 -6.866232
v -28.100554 -0.430765 -6.866232
v -28.100554 -0.495262 -6.834393
v -28.100554 -0.430765 -6.834393
v -16.972252 -0.582776 -6.900808
v -16.972252 -0.177218 -6.900808
v -16.972252 -0.582776 -6.799818
v -16.972252 -0.177218 -6.799818
v -17.073242 -0.582776 -6.900808
v -17.073242 -0.177218 -6.900808
v -17.073242 -0.582776 -6.799818
v -17.073242 -0.177218 -6.799818
v -17.897320 -0.582776 -6.900808
v -17.897320 -0.177218 -6.900808
v -17.897320 -0.582776 -6.799818
v -17.897320 -0.177218 -6.799818
v -17.998310 -0.582776 -6.900808
v -17.998310 -0.177218 -6.900808
v -17.998310 -0.582776 -6.799818
v -17.998310 -0.177218 -6.799818
v -18.822386 -0.582776 -6.900808
v -18.822386 -0.177218 -6.900808
v -18.822386 -0.582776 -6.799818
v -18.822386 -0.177218 -6.799818
v -18.923376 -0.582776 -6.900808
v -18.923376 -0.177218 -6.900808
v -18.923376 -0.582776 -6.799818
v -18.923376 -0.177218 -6.799818
v -19.747454 -0.582776 -6.900808
v -19.747454 -0.177218 -6.900808
v -19.747454 -0.582776 -6.799818
v -19.747454 -0.177218 -6.799818
v -19.848444 -0.582776 -6.900808
v -19.848444 -0.177218 -6.900808
v -19.848444 -0.582776 -6.799818
v -19.848444 -0.177218 -6.799818
v -20.672522 -0.582776 -6.900808
v -20.672522 -0.177218 -6.900808
v -20.672522 -0.582776 -6.799818
v -20.672522 -0.177218 -6.799818
v -20.773510 -0.582776 -6.900808
v -20.773510 -0.177218 -6.900808
v -20.773510 -0.582776 -6.799818
v -20.773510 -0.177218 -6.799818
v -21.597588 -0.582776 -6.900808
v -21.597588 -0.177218 -6.900808
v -21.597588 -0.582776 -6.799818
v -21.597588 -0.177218 -6.799818
v -21.698578 -0.582776 -6.900808
v -21.698578 -0.177218 -6.900808
v -21.698578 -0.582776 -6.799818
v -21.698578 -0.177218 -6.799818
v -22.522655 -0.582776 -6.900808
v -22.522655 -0.177218 -6.900808
v -22.522655 -0.582776 -6.799818
v -22.522655 -0.177218 -6.799818
v -22.623646 -0.582776 -6.900808
v -22.623646 -0.177218 -6.900808
v -22.623646 -0.582776 -6.799818
v -22.623646 -0.177218 -6.799818
v -23.447723 -0.582776 -6.900808
v -23.447723 -0.177218 -6.900808
v -23.447723 -0.582776 -6.799818
v -23.447723 -0.177218 -6.799818
v -23.548712 -0.582776 -6.900808
v -23.548712 -0.177218 -6.900808
v -23.548712 -0.582776 -6.799818
v -23.548712 -0.177218 -6.799818
v -24.372789 -0.582776 -6.900808
v -24.372789 -0.177218 -6.900808
v -24.372789 -0.582776 -6.799818
v -24.372789 -0.177218 -6.799818
v -24.473780 -0.582776 -6.900808
v -24.473780 -0.177218 -6.900808
v -24.473780 -0.582776 -6.799818
v -24.473780 -0.177218 -6.799818
v -25.297857 -0.582776 -6.900808
v -25.297857 -0.177218 -6.900808
v -25.297857 -0.582776 -6.799818
v -25.297857 -0.177218 -6.799818
v -25.398848 -0.582776 -6.900808
v -25.398848 -0.177218 -6.900808
v -25.398848 -0.582776 -6.799818
v -25.398848 -0.177218 -6.799818
v -26.222925 -0.582776 -6.900808
v -26.222925 -0.177218 -6.900808
v -26.222925 -0.582776 -6.799818
v -26.222925 -0.177218 -6.799818
v -26.323915 -0.582776 -6.900808
v -26.323915 -0.177218 -6.900808
v -26.323915 -0.582776 -6.799818
v -26.323915 -0.177218 -6.799818
v -27.147993 -0.582776 -6.900808
v -27.147993 -0.177218 -6.900808
v -27.147993 -0.582776 -6.799818
v -27.147993 -0.177218 -6.799818
v -27.248983 -0.582776 -6.900808
v -27.248983 -0.177218 -6.900808
v -27.248983 -0.582776 -6.799818
v -27.248983 -0.177218 -6.799818
v -28.073059 -0.582776 -6.900808
v -28.073059 -0.177218 -6.900808
v -28.073059 -0.582776 -6.799818
v -28.073059 -0.177218 -6.799818
v -28.174049 -0.582776 -6.900808
v -28.174049 -0.177218 -6.900808
v -28.174049 -0.582776 -6.799818
v -28.174049 -0.177218 -6.799818
v -17.054295 -0.338789 -6.866232
v -17.054295 -0.274292 -6.866232
v -17.054295 -0.338789 -6.834393
v -17.054295 -0.274292 -6.834393
v -28.100554 -0.338789 -6.866232
v -28.100554 -0.274292 -6.866232
v -28.100554 -0.338789 -6.834393
v -28.100554 -0.274292 -6.834393
vn 1.0000 -0.0000 -0.0000
vn -0.0000 -0.0000 1.0000
vn -1.0000 -0.0000 -0.0000
vn -0.0000 -0.0000 -1.0000
vn -0.0000 -1.0000 -0.0000
vn -0.0000 1.0000 -0.0000
vt 1.097682 1.334580
vt 1.097682 1.245824
vt 1.186438 1.245824
vt 1.186438 1.334580
vt 1.275191 1.826028
vt 1.225641 1.826028
vt 1.225641 1.334580
vt 1.275191 1.334580
vt 1.275194 1.334580
vt 1.275194 1.245824
vt 1.363950 1.245824
vt 1.363950 1.334580
vt 1.275192 0.843133
vt 1.225641 0.843133
vt 1.225641 0.351684
vt 1.275192 0.351684
vt 1.541462 1.245824
vt 1.452706 1.245824
vt 1.452706 1.157069
vt 1.541462 1.157069
vt 1.541462 1.334580
vt 1.452706 1.334580
vt -0.331069 0.040871
vt -0.331069 -0.517228
vt -0.049547 -0.517228
vt -0.049547 0.040871
vt 2.954750 0.598970
vt 2.954750 1.157069
vt 2.663343 1.157069
vt 2.663343 0.598970
vt 0.231975 -0.517228
vt 0.231975 0.040871
vt 2.954718 0.040871
vt 2.954718 0.598970
vt 2.663279 0.598970
vt 2.663279 0.040871
vt 1.077355 1.438591
vt 1.076542 1.438591
vt 1.076542 1.157069
vt 1.077355 1.157069
vt 1.078168 1.438591
vt 1.078168 1.157069
vt 0.513498 -0.517228
vt 0.513498 0.040871
vt 2.371873 -0.517228
vt 2.371873 0.040871
vt 2.080403 0.040871
vt 2.080403 -0.517228
vt -0.331069 0.598970
vt -0.049547 0.598970
vt 2.080370 0.598970
vt 2.080370 1.157069
vt 1.788964 1.157069
vt 1.788964 0.598970
vt 1.083860 1.438591
vt 1.083047 1.438591
vt 1.083047 1.157069
vt 1.083860 1.157069
vt 1.084673 1.438591
vt 1.084673 1.157069
vt 0.231975 0.598970
vt 1.497493 0.040871
vt 1.497493 0.598970
vt 1.206087 0.598970
vt 1.206087 0.040871
vt 0.513498 0.598970
vt 1.497493 -0.517228
vt 1.497493 0.040871
vt 1.206087 0.040871
vt 1.206087 -0.517228
vt 1.090364 1.438591
vt 1.089551 1.438591
vt 1.089551 1.157069
vt 1.090364 1.157069
vt 1.091177 1.438591
vt 1.091177 1.157069
vt 0.513497 0.040871
vt 0.513497 -0.517228
vt 0.795020 -0.517228
vt 0.795020 0.040871
vt 1.206023 0.598970
vt 1.206023 1.157069
vt 0.914617 1.157069
vt 0.914617 0.598970
vt 0.513497 0.598970
vt 0.795020 0.598970
vt 0.914617 0.040871
vt 1.091991 1.438591
vt 1.091991 1.157069
vt 1.092804 1.438591
vt 1.092804 1.157069
vt 1.076542 -0.517228
vt 1.076542 0.040871
vt 2.080370 0.040871
vt 1.788964 0.040871
vt 1.076542 0.598970
vt 1.788964 0.040871
vt 1.788964 -0.517228
vt 1.085486 1.438591
vt 1.085486 1.157069
vt 1.086299 1.438591
vt 1.086299 1.157069
vt -0.331069 1.157069
vt -0.331069 0.598970
vt -0.049547 0.598970
vt -0.049547 1.157069
vt 1.788900 0.598970
vt 1.788900 1.157069
vt 1.497493 1.157069
vt 0.231975 0.598970
vt 0.231975 1.157069
vt 1.497525 0.598970
vt 1.497525 0.040871
vt 1.087112 1.438591
vt 1.087112 1.157069
vt 1.087925 1.438591
vt 1.087925 1.157069
vt 0.513498 0.598970
vt 0.513498 1.157069
vt 1.497525 0.040871
vt 1.497525 -0.517228
vt 0.513497 1.157069
vt 0.513497 0.598970
vt 0.795020 0.598970
vt 0.795020 1.157069
vt 1.088738 1.438591
vt 1.088738 1.157069
vt 1.076542 0.598970
vt 1.076542 1.157069
vt 0.914617 0.040871
vt 0.914617 -0.517228
vt 1.076542 0.040871
vt 1.076542 -0.517228
vt 1.358064 -0.517228
vt 1.358064 0.040871
vt 0.623146 1.157069
vt 0.623146 0.598970
vt 1.093617 1.438591
vt 1.093617 1.157069
vt 1.094430 1.438591
vt 1.094430 1.157069
vt 1.076542 0.598970
vt 1.358064 0.598970
vt 0.623210 0.598970
vt 0.623210 0.040871
vt 1.076542 1.157069
vt 1.076542 0.598970
vt 1.358064 0.598970
vt 1.358064 1.157069
vt 0.623146 0.040871
vt 0.623146 -0.517228
vt 1.095243 1.438591
vt 1.095243 1.157069
vt 1.096056 1.438591
vt 1.096056 1.157069
vt 1.639586 -0.517228
vt 1.639586 0.040871
vt 2.954750 -0.517228
vt 2.954750 0.040871
vt 2.663279 0.040871
vt 2.663279 -0.517228
vt 1.639586 0.598970
vt 2.663279 1.157069
vt 2.371841 1.157069
vt 2.371841 0.598970
vt 1.078981 1.438591
vt 1.078981 1.157069
vt 1.079794 1.438591
vt 1.079794 1.157069
vt 1.639586 0.598970
vt 1.639586 1.157069
vt 0.331740 1.157069
vt 0.331740 0.598970
vt -0.331069 1.715167
vt -0.331069 1.157069
vt -0.049547 1.157069
vt -0.049547 1.715167
vt 0.331740 0.040871
vt 1.096869 1.438591
vt 1.096869 1.157069
vt 1.097682 1.438591
vt 1.097682 1.157069
vt 0.231975 1.157069
vt 0.231975 1.715167
vt 2.663247 0.040871
vt 2.663247 0.598970
vt 2.371841 0.040871
vt 0.513498 1.157069
vt 0.513498 1.715167
vt 1.080607 1.438591
vt 1.079794 1.438591
vt 1.079794 1.157069
vt 1.080607 1.157069
vt 1.081420 1.438591
vt 1.081420 1.157069
vt 0.513497 1.715167
vt 0.513497 1.157069
vt 0.795020 1.157069
vt 0.795020 1.715167
vt 2.371873 0.598970
vt 2.371873 1.157069
vt 2.080403 1.157069
vt 2.080403 0.598970
vt 1.076542 1.157069
vt 1.076542 1.715167
vt 1.082233 1.438591
vt 1.082233 1.157069
vt 1.083047 1.438591
vt 1.082234 1.438591
vt 1.082234 1.157069
vt 1.083047 1.157069
vt 1.275194 1.245824
vt 1.186438 1.157068
vt 1.275194 1.157068
vt 1.324741 2.317476
vt 1.275191 2.317476
vt 1.324741 1.826028
vt 1.097682 1.245824
vt 1.097682 1.157068
vt 1.324742 1.334580
vt 1.275194 1.157069
vt 1.363950 1.157069
s 0
f 1/1/1 2/2/1 4/3/1 3/4/1
f 3/5/2 4/6/2 8/7/2 7/8/2
f 7/9/3 8/10/3 6/11/3 5/12/3
f 5/13/4 6/14/4 2/15/4 1/16/4
f 3/17/5 7/18/5 5/19/5 1/20/5
f 8/21/6 4/22/6 2/18/6 6/17/6
f 9/23/1 10/24/1 12/25/1 11/26/1
f 11/27/2 12/28/2 16/29/2 15/30/2
f 15/26/3 16/25/3 14/31/3 13/32/3
f 13/33/4 14/34/4 10/35/4 9/36/4
f 11/37/5 15/38/5 13/39/5 9/40/5
f 16/41/6 12/37/6 10/40/6 14/42/6
f 17/32/1 18/31/1 20/43/1 19/44/1
f 19/45/2 20/46/2 24/47/2 23/48/2
f 23/49/3 24/23/3 22/26/3 21/50/3
f 21/51/4 22/52/4 18/53/4 17/54/4
f 19/55/5 23/56/5 21/57/5 17/58/5
f 24/59/6 20/55/6 18/58/6 22/60/6
f 25/50/1 26/26/1 28/32/1 27/61/1
f 27/62/2 28/63/2 32/64/2 31/65/2
f 31/61/3 32/32/3 30/44/3 29/66/3
f 29/67/4 30/68/4 26/69/4 25/70/4
f 27/71/5 31/72/5 29/73/5 25/74/5
f 32/75/6 28/71/6 26/74/6 30/76/6
f 33/77/1 34/78/1 36/79/1 35/80/1
f 35/81/2 36/82/2 40/83/2 39/84/2
f 39/85/3 40/77/3 38/80/3 37/86/3
f 37/65/4 38/64/4 34/84/4 33/87/4
f 35/88/5 39/75/5 37/76/5 33/89/5
f 40/90/6 36/88/6 34/89/6 38/91/6
f 41/80/1 42/79/1 44/92/1 43/93/1
f 43/94/2 44/51/2 48/54/2 47/95/2
f 47/86/3 48/80/3 46/93/3 45/96/3
f 45/48/4 46/47/4 42/97/4 41/98/4
f 43/99/5 47/59/5 45/60/5 41/100/5
f 48/101/6 44/99/6 42/100/6 46/102/6
f 49/103/1 50/104/1 52/105/1 51/106/1
f 51/107/2 52/108/2 56/109/2 55/63/2
f 55/106/3 56/105/3 54/110/3 53/111/3
f 53/95/4 54/54/4 50/112/4 49/113/4
f 51/114/5 55/101/5 53/102/5 49/115/5
f 56/116/6 52/114/6 50/115/6 54/117/6
f 57/111/1 58/110/1 60/118/1 59/119/1
f 59/98/2 60/97/2 64/120/2 63/121/2
f 63/122/3 64/123/3 62/124/3 61/125/3
f 61/63/4 62/109/4 58/82/4 57/81/4
f 59/126/5 63/116/5 61/117/5 57/127/5
f 64/72/6 60/126/6 58/127/6 62/73/6
f 65/125/1 66/124/1 68/128/1 67/129/1
f 67/70/2 68/69/2 72/130/2 71/131/2
f 71/132/3 72/133/3 70/134/3 69/135/3
f 69/84/4 70/83/4 66/136/4 65/137/4
f 67/138/5 71/90/5 69/91/5 65/139/5
f 72/140/6 68/138/6 66/139/6 70/141/6
f 73/142/1 74/132/1 76/135/1 75/143/1
f 75/87/2 76/84/2 80/144/2 79/145/2
f 79/146/3 80/147/3 78/148/3 77/149/3
f 77/131/4 78/130/4 74/150/4 73/151/4
f 75/152/5 79/140/5 77/141/5 73/153/5
f 80/154/6 76/152/6 74/153/6 78/155/6
f 81/135/1 82/134/1 84/156/1 83/157/1
f 83/158/2 84/159/2 88/160/2 87/161/2
f 87/143/3 88/135/3 86/157/3 85/162/3
f 85/35/4 86/163/4 82/164/4 81/165/4
f 83/166/5 87/41/5 85/42/5 81/167/5
f 88/168/6 84/166/6 82/167/6 86/169/6
f 89/149/1 90/148/1 92/170/1 91/171/1
f 91/137/2 92/136/2 96/172/2 95/173/2
f 95/174/3 96/175/3 94/176/3 93/177/3
f 93/145/4 94/144/4 90/173/4 89/178/4
f 91/179/5 95/154/5 93/155/5 89/180/5
f 96/181/6 92/179/6 90/180/6 94/182/6
f 97/177/1 98/176/1 100/183/1 99/184/1
f 99/185/2 100/186/2 104/165/2 103/187/2
f 103/184/3 104/183/3 102/188/3 101/189/3
f 101/161/4 102/160/4 98/46/4 97/45/4
f 99/190/5 103/191/5 101/192/5 97/193/5
f 104/194/6 100/190/6 98/193/6 102/195/6
f 105/196/1 106/197/1 108/198/1 107/199/1
f 107/200/2 108/201/2 112/202/2 111/203/2
f 111/199/3 112/198/3 110/204/3 109/205/3
f 109/187/4 110/165/4 106/51/4 105/94/4
f 107/206/5 111/194/5 109/195/5 105/207/5
f 112/208/6 108/209/6 106/210/6 110/211/6
f 113/212/1 114/3/1 116/213/1 115/214/1
f 115/215/2 116/216/2 120/5/2 119/217/2
f 119/3/3 120/218/3 118/219/3 117/213/3
f 117/217/4 118/5/4 114/8/4 113/220/4
f 115/11/5 119/10/5 117/221/5 113/222/5
f 120/18/6 116/11/6 114/222/6 118/19/6
