# Blender 3.6.3
# www.blender.org
g long_thingy_building_Cube.101
v 24.318336 0.075877 -8.020159
v 24.318336 1.281453 -8.020159
v 24.318336 0.075877 -1.636527
v 24.318336 1.281453 -1.636527
v 23.159317 0.075877 -8.020159
v 23.159317 1.185645 -8.020159
v 23.159317 0.075877 -1.636527
v 23.159317 1.185645 -1.636527
v 24.260386 0.133828 -8.020159
v 24.260386 1.281453 -8.020159
v 24.260386 0.133828 -1.955708
v 24.258739 1.281453 -1.947543
v 23.217268 0.133828 -8.020159
v 23.217268 1.185645 -8.020159
v 23.217268 0.133828 -1.955708
v 23.215862 1.185645 -1.964314
vn 1.0000 -0.0000 -0.0000
vn -0.0000 -0.0000 1.0000
vn -0.0000 -1.0000 -0.0000
vn -1.0000 -0.0000 -0.0000
vn -1.0000 -0.0007 -0.0001
vn 0.0080 -0.0002 -1.0000
vn -0.0000 1.0000 -0.0000
vn 1.0000 0.0007 0.0001
vn -0.0867 0.9962 0.0004
vn -0.0000 -0.0000 -1.0000
vt -26.355579 -2.470786
vt -26.355579 -6.835989
vt -10.129310 -6.835989
vt -10.129310 -2.470786
vt -26.355579 1.894418
vt -26.355579 -2.470785
vt -10.129310 -2.123876
vt -10.129310 1.894418
vt 21.570591 -6.459436
vt 15.453773 -6.459436
vt 15.453773 -18.371975
vt 21.570591 -18.371975
vt -0.260084 -15.863292
vt 3.598425 -15.863292
vt 3.598425 1.791998
vt -0.260084 1.791994
vt 21.533247 5.881216
vt 6.118291 5.881217
vt 6.097527 1.725842
vt 21.533247 1.725844
vt 4.494030 5.887752
vt -10.109612 5.887752
vt -10.129310 2.079288
vt 4.470982 1.732379
vt 21.272789 17.248669
vt 21.272789 5.931758
vt 26.776627 5.931625
vt 26.776627 17.248539
vt -4.662705 2.501197
vt -4.662705 19.273720
vt -8.319727 19.273720
vt -8.319729 2.524991
vt -10.128747 -2.470785
vt 6.097518 -2.470785
vt 6.097527 -2.261003
vt -9.338179 -2.255042
vt -10.129311 1.732380
vt -9.296134 1.527689
vt 6.096953 1.732380
vt 6.096946 1.522598
vt 6.096957 -2.470785
vt -10.129309 -2.470785
vt -9.317995 -2.680616
vt 5.285645 -2.680616
vt 6.096957 -6.835989
vt 5.285645 -6.835989
vt -10.129309 -6.489081
vt -9.317995 -6.489081
s 0
f 1/1/1 2/2/1 4/3/1 3/4/1
f 3/5/2 4/6/2 8/7/2 7/8/2
f 3/9/3 7/10/3 5/11/3 1/12/3
f 7/13/4 8/14/4 6/15/4 5/16/4
f 9/17/5 11/18/5 12/19/5 10/20/5
f 11/21/6 15/22/6 16/23/6 12/24/6
f 11/25/7 9/26/7 13/27/7 15/28/7
f 15/29/8 13/30/8 14/31/8 16/32/8
f 4/33/7 2/34/7 10/35/7 12/36/7
f 8/37/9 4/33/9 12/36/9 16/38/9
f 6/39/7 8/37/7 16/38/7 14/40/7
f 1/41/10 5/42/10 13/43/10 9/44/10
f 2/45/10 1/41/10 9/44/10 10/46/10
f 5/42/10 6/47/10 14/48/10 13/43/10
g roof.010_Cube.102
v 24.377035 1.297050 -8.147202
v 24.377035 1.297050 -1.509483
v 23.100622 1.197428 -8.147202
v 23.100622 1.197428 -1.509483
v 24.380697 1.255216 -8.147202
v 24.380697 1.255216 -1.509483
v 23.104284 1.155594 -8.147202
v 23.104284 1.155594 -1.509483
vn -0.0778 0.9970 -0.0000
vn 0.0778 -0.9970 -0.0000
vn 0.9962 0.0872 -0.0000
vn -0.0000 -0.0000 1.0000
vn -0.9962 -0.0872 -0.0000
vn -0.0000 -0.0000 -1.0000
vt 4.291210 0.577776
vt 4.291210 2.071488
vt -3.907877 2.071489
vt -3.907877 0.577776
vt -3.907877 -0.915936
vt 4.291210 -0.915936
vt 4.291210 0.577775
vt -3.907877 0.577776
vt 4.291210 -0.967788
vt -3.907877 -0.967787
vt -3.907877 -1.019638
vt 4.291210 -1.019638
vt -2.414165 -1.071489
vt -0.920453 -1.071489
vt -0.920453 -1.019638
vt -2.414165 -1.019638
vt -3.907878 -0.967787
vt 4.291210 -0.967787
vt -3.907877 -1.071488
vt -2.414165 -1.071488
s 0
f 20/49/11 18/50/11 17/51/11 19/52/11
f 24/53/12 23/54/12 21/55/12 22/56/12
f 17/57/13 18/58/13 22/59/13 21/60/13
f 18/61/14 20/62/14 24/63/14 22/64/14
f 20/54/15 19/53/15 23/65/15 24/66/15
f 19/64/16 17/59/16 21/67/16 23/68/16
g poles_Cube.079
v 23.296856 0.069314 -8.064407
v 23.296856 1.188146 -8.064407
v 23.296856 0.069314 -7.899822
v 23.296856 1.188146 -7.899822
v 23.132271 0.069314 -8.064407
v 23.132271 1.188146 -8.064407
v 23.132271 0.069314 -7.899822
v 23.132271 1.188146 -7.899822
v 24.180801 0.069314 -8.064407
v 24.180801 1.270334 -8.064407
v 24.180801 0.069314 -7.899822
v 24.180801 1.270334 -7.899822
v 24.345387 0.069314 -8.064407
v 24.345387 1.270334 -8.064407
v 24.345387 0.069314 -7.899822
v 24.345387 1.270334 -7.899822
v 23.296856 0.069314 -1.592281
v 23.296856 1.188146 -1.592281
v 23.296856 0.069314 -1.756866
v 23.296856 1.188146 -1.756866
v 23.132271 0.069314 -1.592281
v 23.132271 1.188146 -1.592281
v 23.132271 0.069314 -1.756866
v 23.132271 1.188146 -1.756866
v 24.180801 0.069314 -1.592281
v 24.180801 1.270334 -1.592281
v 24.180801 0.069314 -1.756866
v 24.180801 1.270334 -1.756866
v 24.345387 0.069314 -1.592281
v 24.345387 1.270334 -1.592281
v 24.345387 0.069314 -1.756866
v 24.345387 1.270334 -1.756866
vn 1.0000 -0.0000 -0.0000
vn -0.0000 -0.0000 1.0000
vn -1.0000 -0.0000 -0.0000
vn -0.0000 -0.0000 -1.0000
vn -0.0000 -1.0000 -0.0000
vn -0.0000 1.0000 -0.0000
vt -3.680734 1.067306
vt -2.058910 1.067306
vt -2.058910 1.419629
vt -3.680734 1.419629
vt -3.680734 0.714983
vt -2.058910 0.714983
vt -3.680734 0.362661
vt -2.058910 0.362661
vt -2.058910 0.714983
vt -3.680734 0.010337
vt -2.058910 0.010337
vt -2.058910 0.362660
vt -3.680734 0.362660
vt 3.044838 -0.419629
vt 4.666663 -0.419629
vt 4.666663 -0.067306
vt 3.044838 -0.067306
vt 1.423015 -0.419629
vt 1.423015 -0.067306
vt 3.044838 0.663221
vt 4.666663 0.663221
vt 4.666663 1.041425
vt 3.044838 1.041425
vt 3.044838 1.041425
vt 4.666663 1.419629
vt 3.044838 1.419629
vt 1.423015 0.663221
vt 1.423015 1.041425
vt 1.303877 1.419629
vt 1.303876 1.067306
vt 3.044838 1.067306
vt -0.198807 0.310898
vt 1.423018 0.310898
vt 1.423018 0.663221
vt -0.198807 0.663221
vt -2.058910 1.419629
vt -0.437085 1.067306
vt -0.437085 1.419629
vt 1.709203 -4.247646
vt 1.271740 -4.247646
vt 1.271740 -2.081259
vt 1.709203 -2.081259
vt 1.773475 4.895322
vt 2.210938 4.895322
vt 2.210938 2.728936
vt 1.773475 2.728936
vt 2.146665 -4.247646
vt 1.709202 -4.247646
vt 1.709202 -2.081259
vt 2.146665 -2.081259
vt 1.773475 2.728934
vt 2.210938 2.728934
vt 2.210938 0.562549
vt 1.773475 0.562549
vt 0.396815 0.085128
vt 0.834278 0.085128
vt 0.834278 -2.081259
vt 0.396815 -2.081259
vt 1.271740 0.085128
vt 4.666663 0.285017
vt 3.044840 0.663221
vt 3.044840 0.285017
vt 1.303876 1.067306
vt 1.303876 1.419629
vt 1.423018 0.285017
vt -0.437085 0.714983
vt 1.303876 0.714983
vt 1.423017 -0.067306
vt 1.423017 0.285017
vt -0.198805 0.285017
vt -0.198805 -0.067306
vt -1.820628 0.285017
vt -1.820628 -0.067306
s 0
f 25/69/17 26/70/17 28/71/17 27/72/17
f 27/73/18 28/74/18 32/70/18 31/69/18
f 31/75/19 32/76/19 30/77/19 29/73/19
f 29/78/20 30/79/20 26/80/20 25/81/20
f 27/82/21 31/83/21 29/84/21 25/85/21
f 32/86/22 28/82/22 26/85/22 30/87/22
f 33/88/19 35/89/19 36/90/19 34/91/19
f 35/92/18 39/90/18 40/93/18 36/94/18
f 39/95/17 37/88/17 38/91/17 40/96/17
f 37/97/20 33/98/20 34/99/20 38/94/20
f 35/100/21 33/101/21 37/102/21 39/103/21
f 40/104/22 38/70/22 34/105/22 36/106/22
f 41/107/17 43/108/17 44/109/17 42/110/17
f 43/111/20 47/112/20 48/113/20 44/114/20
f 47/115/19 45/116/19 46/117/19 48/118/19
f 45/119/18 41/120/18 42/121/18 46/122/18
f 43/123/21 41/124/21 45/125/21 47/126/21
f 48/124/22 46/127/22 42/109/22 44/125/22
f 49/128/19 50/89/19 52/129/19 51/130/19
f 51/105/20 52/131/20 56/132/20 55/106/20
f 55/130/17 56/129/17 54/102/17 53/133/17
f 53/134/18 54/135/18 50/131/18 49/105/18
f 51/136/21 55/137/21 53/138/21 49/139/21
f 56/139/22 52/138/22 50/140/22 54/141/22
g door-maybe_Cube.103
v 24.318338 0.075877 -8.023230
v 23.159319 0.075877 -8.023230
v 24.318338 0.936349 -8.023230
v 23.159319 0.924897 -8.023230
vn -0.0000 -0.0000 -1.0000
vt -0.583258 -0.785624
vt 1.300266 -0.785624
vt 1.325672 1.785624
vt -0.583258 1.785624
s 0
f 58/142/23 60/143/23 59/144/23 57/145/23
