# Blender 3.6.3
# www.blender.org
g frame.026_Cube.122
v -26.553570 -0.508075 1.628673
v -26.553570 -0.295588 1.628673
v -26.492924 -0.508075 1.628673
v -26.492924 -0.295588 1.628673
v -26.553570 -0.508075 1.833730
v -26.553570 -0.295588 1.833730
v -26.492924 -0.508075 1.833730
v -26.492924 -0.295588 1.833730
v -26.553570 -0.530499 1.608937
v -26.553570 -0.273164 1.608937
v -26.492924 -0.273164 1.608937
v -26.492924 -0.530499 1.608937
v -26.492924 -0.530499 1.853465
v -26.492924 -0.273164 1.853465
v -26.553570 -0.273164 1.853465
v -26.553570 -0.530499 1.853465
vn -0.0000 -0.0000 -1.0000
vn -0.0000 1.0000 -0.0000
vn -0.0000 -0.0000 1.0000
vn -0.0000 -1.0000 -0.0000
vn -1.0000 -0.0000 -0.0000
vn 1.0000 -0.0000 -0.0000
vt 1.157127 0.447721
vt 0.037920 0.447721
vt 0.037920 1.630389
vt 1.157127 1.630389
vt -1.250631 1.656099
vt -2.263954 1.656099
vt -2.263954 2.838767
vt -1.250631 2.838767
vt 2.276333 0.447721
vt 1.157127 0.447722
vt 1.157127 1.630389
vt 2.276333 1.630389
vt 3.200484 1.630389
vt 3.200484 0.447721
vt 2.276333 0.447721
vt 2.276333 1.630389
vt -2.263954 -0.760656
vt -2.263954 0.447721
vt -1.081286 0.447721
vt -1.081286 -0.760656
vt -1.081282 -0.760656
vt -1.081282 0.447721
vt 0.101386 0.447721
vt 0.101386 -0.760656
vt 1.123065 0.350194
vt 0.198913 0.350194
vt 1.220592 0.447721
vt 0.198918 -1.871507
vt 1.123069 -1.871508
vt 1.220596 -1.969034
vt 0.101390 -1.969034
vt 1.123069 -0.858184
vt 1.220596 -0.760657
vt 0.198918 -0.858184
vt 0.101390 -0.760657
vt 0.198913 -0.663129
vt 1.123065 -0.663129
vt 1.220592 -0.760656
vt 3.263949 0.422012
vt 3.263949 -0.760656
vt 2.339798 -0.760656
vt 2.339798 0.422012
vt -0.237307 1.656099
vt -1.250630 1.656099
vt -1.250630 2.838767
vt -0.237307 2.838767
s 0
f 9/1/1 10/2/1 11/3/1 12/4/1
f 7/5/2 3/6/2 1/7/2 5/8/2
f 13/9/3 14/10/3 15/11/3 16/12/3
f 7/13/1 5/14/1 6/15/1 8/16/1
f 12/17/4 13/18/4 16/19/4 9/20/4
f 14/21/2 11/22/2 10/23/2 15/24/2
f 1/25/5 2/26/5 10/23/5 9/27/5
f 4/28/6 3/29/6 12/30/6 11/31/6
f 3/29/6 7/32/6 13/33/6 12/30/6
f 8/34/6 4/28/6 11/31/6 14/35/6
f 7/32/6 8/34/6 14/35/6 13/33/6
f 6/36/5 5/37/5 16/38/5 15/24/5
f 5/37/5 1/25/5 9/27/5 16/38/5
f 2/26/5 6/36/5 15/24/5 10/23/5
f 1/39/3 3/40/3 4/41/3 2/42/3
f 4/43/4 8/44/4 6/45/4 2/46/4
g tiny_trio_Cube.111
v -26.506548 -0.820388 1.590442
v -26.506548 -0.139383 1.590442
v -26.506548 -0.820388 2.461060
v -26.506548 -0.139383 2.461060
v -27.155558 -0.820388 1.590442
v -27.155558 -0.139383 1.590442
v -27.155558 -0.820388 2.423551
v -27.155558 -0.139383 2.423551
vn 1.0000 -0.0000 -0.0000
vn -1.0000 -0.0000 -0.0000
vn -0.0577 -0.0000 0.9983
vn -0.0000 -0.0000 -1.0000
vn -0.0000 -1.0000 -0.0000
vn -0.0000 1.0000 -0.0000
vt 4.484768 5.668365
vt 0.777409 5.668365
vt 0.777409 0.384736
vt 4.484767 0.384736
vt 7.637309 -0.082342
vt 3.929951 -0.082342
vt 3.929951 -5.138337
vt 7.637309 -5.138337
vt -2.929950 5.912496
vt -6.637309 5.912496
vt -6.637309 0.384735
vt -2.929950 0.384735
vt 0.777408 5.907807
vt -2.929950 5.907807
vt -2.929950 0.384735
vt 0.777408 0.384735
vt -6.409674 -5.138337
vt -1.353679 -5.138337
vt -1.353680 0.384735
vt 3.702315 -5.138337
vt 3.929950 0.384735
vt -1.353679 0.384735
s 0
f 17/47/7 18/48/7 20/49/7 19/50/7
f 23/51/8 24/52/8 22/53/8 21/54/8
f 19/55/9 20/56/9 24/57/9 23/58/9
f 21/59/10 22/60/10 18/61/10 17/62/10
f 19/57/11 23/63/11 21/64/11 17/65/11
f 24/66/12 20/67/12 18/68/12 22/64/12
g glass.025_Plane.057
v -26.499510 -0.525704 1.613153
v -26.499510 -0.525704 1.849242
v -26.499510 -0.277959 1.613153
v -26.499510 -0.277959 1.849242
vn 1.0000 -0.0000 -0.0000
vt 0.000000 0.541379
vt 0.500000 0.541379
vt 0.500000 -0.000000
vt 0.000000 -0.000000
s 0
f 25/69/13 27/70/13 28/71/13 26/72/13
g frame.027_Cube.126
v -28.793112 -0.508075 2.197964
v -28.793112 -0.295588 2.197964
v -28.762739 -0.508075 2.217048
v -28.762739 -0.295588 2.217048
v -28.949553 -0.508075 2.446938
v -28.949553 -0.295588 2.446938
v -28.919180 -0.508075 2.466022
v -28.919180 -0.295588 2.466022
v -28.778055 -0.530499 2.174001
v -28.778055 -0.273164 2.174001
v -28.747683 -0.273164 2.193086
v -28.747683 -0.530499 2.193086
v -28.934237 -0.530499 2.489985
v -28.934237 -0.273164 2.489985
v -28.964609 -0.273164 2.470901
v -28.964609 -0.530499 2.470901
vn 0.5320 -0.0000 -0.8467
vn -0.0000 1.0000 -0.0000
vn -0.5320 -0.0000 0.8467
vn -0.0000 -1.0000 -0.0000
vn -0.8467 -0.0000 -0.5320
vn 0.8467 -0.0000 0.5320
vt 1.497743 -0.033708
vt 0.618242 -0.033708
vt 0.618242 0.895663
vt 1.497743 0.895662
vt 1.414538 0.895663
vt 0.618242 0.895663
vt 0.618242 1.825033
vt 1.414538 1.825033
vt 1.597483 -0.983283
vt 0.717982 -0.983283
vt 0.717982 -0.053912
vt 1.597483 -0.053912
vt 0.381758 1.845237
vt 0.381758 0.915866
vt -0.344464 0.915866
vt -0.344464 1.845237
vt -1.140760 -0.983283
vt -1.140760 -0.033708
vt -0.211389 -0.033708
vt -0.211389 -0.983283
vt -0.211389 -0.033708
vt 0.717982 -0.033708
vt -0.337898 0.839226
vt -1.064120 0.839226
vt -1.140760 0.915866
vt -0.261259 0.915866
vt -0.184619 0.042931
vt 0.541603 0.042931
vt 0.618242 -0.033708
vt -0.261259 -0.033708
vt 0.541603 0.839226
vt 0.618242 0.915866
vt -0.184619 0.839226
vt -1.064120 0.042931
vt -0.337898 0.042931
vt -0.261259 -0.033708
vt 2.140760 1.825033
vt 2.140759 0.895663
vt 1.414538 0.895663
vt 1.414538 1.825033
vt -1.140760 0.915866
vt -1.140760 1.845237
vt -0.344464 1.845237
s 0
f 37/73/14 38/74/14 39/75/14 40/76/14
f 35/77/15 31/78/15 29/79/15 33/80/15
f 41/81/16 42/82/16 43/83/16 44/84/16
f 35/85/14 33/86/14 34/87/14 36/88/14
f 40/89/17 41/90/17 44/91/17 37/92/17
f 42/92/15 39/93/15 38/94/15 43/82/15
f 29/95/18 30/96/18 38/97/18 37/98/18
f 32/99/19 31/100/19 40/101/19 39/102/19
f 31/100/19 35/103/19 41/104/19 40/101/19
f 36/105/19 32/99/19 39/102/19 42/98/19
f 35/103/19 36/105/19 42/98/19 41/104/19
f 34/106/18 33/107/18 44/108/18 43/90/18
f 33/107/18 29/95/18 37/98/18 44/108/18
f 30/96/18 34/106/18 43/90/18 38/97/18
f 29/109/16 31/110/16 32/111/16 30/112/16
f 32/87/17 36/113/17 34/114/17 30/115/17
g glass.027_Plane.060
v -28.754198 -0.525704 2.196132
v -28.934313 -0.525704 2.482785
v -28.754198 -0.277959 2.196132
v -28.934313 -0.277959 2.482785
vn 0.8467 -0.0000 0.5320
vt 0.000000 1.000000
vt 0.923568 1.000000
vt 0.923568 -0.000000
vt 0.000000 -0.000000
s 0
f 45/116/20 47/117/20 48/118/20 46/119/20
g roof.006_Cube.114
v -27.178154 -0.145572 1.551407
v -26.831249 0.034755 1.769973
v -26.831249 -0.145572 1.551407
v -26.484344 -0.145572 1.551407
v -27.178154 -0.145572 2.485260
v -26.831249 0.034755 2.266694
v -26.831249 -0.145572 2.485260
v -26.484344 -0.145572 2.485260
vn -0.0000 -1.0000 -0.0000
vn -0.0000 0.7714 -0.6364
vn 0.4612 0.8873 -0.0000
vn -0.0000 0.7714 0.6364
vn -0.4612 0.8873 -0.0000
vt -1.155471 -1.318010
vt -1.155471 2.178061
vt -1.993694 2.178061
vt -1.993694 -1.318010
vt 1.395271 1.213150
vt 0.350349 2.032644
vt 0.352361 1.213150
vt 1.394566 1.147070
vt -0.315620 1.147070
vt -1.068131 -0.287019
vt 2.147076 -0.287020
vt -0.317249 -1.318010
vt -0.317249 2.178061
vt -0.690548 1.213150
vt -0.875999 -1.427369
vt 0.352361 -1.427369
vt 0.331436 -0.384055
vt 1.580721 -1.427369
vt -0.103134 -0.287019
vt 3.112073 -0.287020
vt 2.359563 1.147070
vt 0.649377 1.147070
s 0
f 51/120/21 55/121/21 53/122/21 49/123/21
f 49/124/22 50/125/22 51/126/22
f 50/127/23 54/128/23 56/129/23 52/130/23
f 52/131/21 56/132/21 55/121/21 51/120/21
f 52/133/22 51/126/22 50/125/22
f 53/134/24 55/135/24 54/136/24
f 56/137/24 54/136/24 55/135/24
f 49/138/25 53/139/25 54/140/25 50/141/25
g walls.008_Cube.128
v -28.732893 -0.820388 2.149239
v -28.732893 -0.139383 2.149239
v -29.404598 -0.820388 3.223420
v -29.404598 -0.139383 3.223420
v -29.061230 -0.820388 1.948308
v -29.061230 -0.139383 1.948308
v -29.726818 -0.820388 3.017450
v -29.726818 -0.139383 3.017450
vn 0.8479 -0.0000 0.5302
vn -0.8489 -0.0000 -0.5285
vn -0.5386 -0.0000 0.8426
vn 0.5220 -0.0000 -0.8530
vn -0.0000 -1.0000 -0.0000
vn -0.0000 1.0000 -0.0000
vt 4.762819 6.036884
vt 0.796766 6.036885
vt 0.796766 0.384573
vt 4.762818 0.384572
vt 8.135340 -0.115098
vt 4.169288 -0.115098
vt 4.169288 -5.523891
vt 8.135340 -5.523891
vt -3.169286 6.298051
vt -7.135339 6.298051
vt -7.135339 0.384572
vt -3.169286 0.384572
vt 0.796765 6.293036
vt -3.169286 6.293036
vt -3.169287 0.384572
vt 0.796765 0.384571
vt -6.891820 -5.523891
vt -1.483026 -5.523891
vt -1.483027 0.384572
vt 3.925768 -5.523891
vt 4.169287 0.384572
vt -1.483026 0.384572
s 0
f 57/142/26 58/143/26 60/144/26 59/145/26
f 63/146/27 64/147/27 62/148/27 61/149/27
f 59/150/28 60/151/28 64/152/28 63/153/28
f 61/154/29 62/155/29 58/156/29 57/157/29
f 59/152/30 63/158/30 61/159/30 57/160/30
f 64/161/31 60/162/31 58/163/31 62/159/31
g roof.007_Cube.131
v -29.046967 -0.145572 1.907604
v -29.039976 0.034755 2.282145
v -28.873230 -0.145572 2.016769
v -28.699495 -0.145572 2.125934
v -29.759413 -0.145572 3.041463
v -29.418932 0.034755 2.885251
v -29.585678 -0.145572 3.150628
v -29.411942 -0.145572 3.259793
vn -0.5590 0.7511 -0.3512
vn -0.0000 -1.0000 -0.0000
vn 0.2653 0.8668 -0.4223
vn 0.5590 0.7511 0.3512
vn -0.2653 0.8668 0.4223
vt -1.349327 -0.024436
vt 2.805605 -0.024437
vt 1.833155 0.884487
vt -0.376876 0.884488
vt -0.534495 -1.084166
vt -0.534495 1.944217
vt -1.260584 1.944217
vt -1.260584 -1.084166
vt 1.351660 -1.084166
vt 0.772915 -0.137271
vt 0.771627 -1.084166
vt 3.080195 0.884487
vt 0.870165 0.884487
vt -0.102286 -0.024437
vt 4.052647 -0.024437
vt 0.191594 -1.084166
vt 0.191594 1.944217
vt 0.191595 1.235432
vt 0.771627 1.235432
vt 0.767165 2.350591
vt 1.351660 1.235432
s 0
f 65/164/32 69/165/32 70/166/32 66/167/32
f 67/168/33 71/169/33 69/170/33 65/171/33
f 65/172/34 66/173/34 67/174/34
f 66/175/35 70/176/35 72/177/35 68/178/35
f 68/179/33 72/180/33 71/169/33 67/168/33
f 68/179/34 67/174/34 66/173/34
f 69/181/36 71/182/36 70/183/36
f 72/184/36 70/183/36 71/182/36
g walls.009_Cube.136
v -29.940567 -0.820388 2.066186
v -29.940567 -0.139383 2.066186
v -30.326681 -0.820388 2.656944
v -30.326681 -0.139383 2.656944
v -30.240843 -0.820388 1.869927
v -30.240843 -0.139383 1.869927
v -30.610325 -0.820388 2.435233
v -30.610325 -0.139383 2.435233
vn 0.8371 -0.0000 0.5471
vn -0.8371 -0.0000 -0.5471
vn -0.6158 -0.0000 0.7879
vn 0.5471 -0.0000 -0.8371
vn -0.0000 -1.0000 -0.0000
vn -0.0000 1.0000 -0.0000
vt 2.695438 3.296844
vt 0.652841 3.296844
vt 0.652841 0.385789
vt 2.695438 0.385788
vt 4.432354 0.128448
vt 2.389757 0.128448
vt 2.389757 -2.657190
vt 4.432354 -2.657190
vt -1.389757 3.431350
vt -3.432354 3.431350
vt -3.432354 0.385788
vt -1.389757 0.385788
vt 0.652840 3.428767
vt -1.389757 3.428767
vt -1.389757 0.385788
vt 0.652840 0.385788
vt -3.306937 -2.657190
vt -0.521298 -2.657190
vt -0.521299 0.385788
vt 2.264340 -2.657190
vt 2.389757 0.385788
vt -0.521298 0.385788
s 0
f 73/185/37 74/186/37 76/187/37 75/188/37
f 79/189/38 80/190/38 78/191/38 77/192/38
f 75/193/39 76/194/39 80/195/39 79/196/39
f 77/197/40 78/198/40 74/199/40 73/200/40
f 75/195/41 79/201/41 77/202/41 73/203/41
f 80/204/42 76/205/42 74/206/42 78/202/42
g roof.008_Cube.137
v -30.233986 -0.145572 1.836614
v -30.170416 0.034755 2.089825
v -30.073483 -0.145572 1.941517
v -29.912981 -0.145572 2.046421
v -30.648146 -0.145572 2.470280
v -30.390711 0.034755 2.426876
v -30.487644 -0.145572 2.575183
v -30.327141 -0.145572 2.680087
vn -0.0000 -1.0000 -0.0000
vn 0.3903 0.7008 -0.5971
vn 0.5735 0.7285 0.3748
vn -0.3903 0.7008 0.5971
vn -0.5735 0.7285 -0.3748
vt -0.411106 -0.903562
vt -0.411106 1.763613
vt -1.050591 1.763613
vt -1.050591 -0.903562
vt 1.643196 -1.155967
vt 0.771598 0.004837
vt 0.739229 -1.155967
vt 2.750087 0.971111
vt 0.832242 0.971111
vt -0.011643 -0.111060
vt 3.593971 -0.111060
vt 0.228379 -0.903562
vt 0.228379 1.763613
vt -0.164738 -1.155967
vt -0.135204 0.681326
vt 0.739229 0.681326
vt 0.745958 2.062914
vt 1.613661 0.681326
vt -1.093814 -0.111060
vt 2.511799 -0.111060
vt 1.667915 0.971111
vt -0.249930 0.971111
s 0
f 83/207/43 87/208/43 85/209/43 81/210/43
f 81/211/44 82/212/44 83/213/44
f 82/214/45 86/215/45 88/216/45 84/217/45
f 84/218/43 88/219/43 87/208/43 83/207/43
f 84/220/44 83/213/44 82/212/44
f 85/221/46 87/222/46 86/223/46
f 88/224/46 86/223/46 87/222/46
f 81/225/47 85/226/47 86/227/47 82/228/47
g glass.231_Plane.270
v -26.499510 -0.525704 2.419588
v -26.499510 -0.277959 2.419588
v -26.499510 -0.525704 2.183499
v -26.499510 -0.277959 2.183499
vn 1.0000 -0.0000 -0.0000
vt 0.500000 -0.000000
vt 0.500000 0.541379
vt 1.000000 0.541379
vt 1.000000 -0.000000
s 0
f 89/229/48 91/230/48 92/231/48 90/232/48
g frame.233_Cube.332
v -26.553570 -0.508075 2.404068
v -26.553570 -0.295588 2.404068
v -26.553570 -0.508075 2.199011
v -26.553570 -0.530499 2.423803
v -26.492924 -0.508075 2.404068
v -26.492924 -0.295588 2.404068
v -26.492924 -0.508075 2.199011
v -26.492924 -0.530499 2.423803
v -26.492924 -0.273164 2.423803
v -26.492924 -0.530499 2.179275
v -26.492924 -0.273164 2.179275
v -26.553570 -0.530499 2.179275
v -26.553570 -0.273164 2.179275
v -26.553570 -0.273164 2.423803
v -26.553570 -0.295588 2.199011
v -26.492924 -0.295588 2.199011
vn -0.0000 -0.0000 -1.0000
vn -1.0000 -0.0000 -0.0000
vn -0.0000 1.0000 -0.0000
vn 1.0000 -0.0000 -0.0000
vn -0.0000 -1.0000 -0.0000
vn -0.0000 -0.0000 1.0000
vt 3.263954 -1.969034
vt 2.339803 -1.969034
vt 2.339803 -0.786366
vt 3.263954 -0.786366
vt -0.059607 0.545249
vt 0.037920 0.447721
vt -1.081286 0.447722
vt -0.983758 0.545249
vt -0.059607 1.558572
vt 0.037920 1.656099
vt 0.037920 1.630393
vt 0.037921 2.813061
vt 1.051244 2.813057
vt 1.051244 1.630389
vt -2.166426 1.558571
vt -2.263954 1.656099
vt -1.144748 1.656099
vt -1.242275 1.558571
vt -1.144748 0.447721
vt -1.242275 0.545248
vt -1.081282 -1.969034
vt -2.263950 -1.969034
vt -2.263954 -0.760657
vt -1.081286 -0.760656
vt 2.339798 0.422012
vt 2.339798 -0.760656
vt 1.220592 -0.760656
vt 1.220592 0.422012
vt -2.263954 0.447721
vt -2.166426 0.545248
vt 2.339803 -0.786366
vt 1.220596 -1.969034
vt 1.220596 -0.786366
vt -0.983758 1.558572
vt -1.081286 1.656099
vt -1.081277 -0.760656
vt 0.101390 -0.760657
vt 0.101386 -1.969035
vt -1.081282 -1.969034
vt 2.988719 1.630389
vt 2.064567 1.630389
vt 2.064567 2.813057
vt 2.988719 2.813057
vt 1.051244 1.630389
vt 2.064567 2.813061
vt 2.064567 1.630393
s 0
f 93/233/49 94/234/49 98/235/49 97/236/49
f 93/237/50 96/238/50 106/239/50 94/240/50
f 95/241/50 104/242/50 96/238/50 93/237/50
f 99/243/51 95/244/51 93/245/51 97/246/51
f 98/247/52 101/248/52 100/249/52 97/250/52
f 97/250/52 100/249/52 102/251/52 99/252/52
f 100/253/53 96/254/53 104/255/53 102/256/53
f 96/257/54 100/258/54 101/259/54 106/260/54
f 99/252/52 102/251/52 103/261/52 108/262/52
f 102/263/49 104/234/49 105/264/49 103/265/49
f 107/266/50 105/267/50 104/242/50 95/241/50
f 103/268/51 105/269/51 106/270/51 101/271/51
f 94/240/50 106/239/50 105/267/50 107/266/50
f 99/272/54 108/273/54 107/274/54 95/275/54
f 98/276/53 94/245/53 107/277/53 108/278/53
f 108/262/52 103/261/52 101/248/52 98/247/52
