# Blender 3.6.3
# www.blender.org
g roof_Cube.130
v -15.335058 0.321059 -6.873414
v -15.335058 0.321059 -8.621360
v -16.613066 0.325324 -6.873414
v -16.613066 0.325324 -8.621360
v -15.334843 0.385650 -6.873414
v -15.334843 0.385650 -8.621360
v -16.612850 0.389915 -6.873414
v -16.612850 0.389915 -8.621360
vn -0.0033 -1.0000 -0.0000
vn 0.0033 1.0000 -0.0000
vn 1.0000 -0.0033 -0.0000
vn -0.0000 -0.0000 -1.0000
vn -1.0000 0.0033 -0.0000
vn -0.0000 -0.0000 1.0000
vt 2.561920 -1.753472
vt 2.561920 0.308448
vt -0.258178 0.308449
vt -0.258179 -1.753471
vt -0.258178 0.308449
vt 2.561920 0.308449
vt 2.561920 2.370369
vt -0.258178 2.370370
vt 2.561920 2.474580
vt -0.258178 2.474581
vt 2.561920 2.370369
vt 0.500000 2.578791
vt 2.561920 2.578791
vt 2.561920 2.683002
vt 0.500000 2.683002
vt 2.596843 2.670860
vt -0.223255 2.670861
vt -0.223255 2.566650
vt 2.596843 2.566650
vt 0.500000 2.683003
vt -1.561920 2.683002
vt -1.561920 2.578792
vt 0.500000 2.578792
s 0
f 4/1/1 2/2/1 1/3/1 3/4/1
f 8/5/2 7/6/2 5/7/2 6/8/2
f 1/9/3 2/10/3 6/8/3 5/11/3
f 2/12/4 4/13/4 8/14/4 6/15/4
f 4/16/5 3/17/5 7/18/5 8/19/5
f 3/20/6 1/21/6 5/22/6 7/23/6
g tiny_front-of_isolated_Cube.129
v -15.371852 -0.669129 -6.923739
v -15.371852 0.321182 -6.923739
v -15.371852 -0.669129 -8.571039
v -15.371852 0.321182 -8.571039
v -16.576271 -0.669129 -6.923739
v -16.576271 0.325201 -6.923739
v -16.576271 -0.669129 -8.571039
v -16.576271 0.325201 -8.571039
v -15.371852 -0.669129 -8.190248
v -15.371852 -0.669129 -7.304531
v -15.371852 0.321182 -7.304531
v -15.371852 0.321182 -8.190248
v -16.576271 -0.669129 -7.304531
v -16.576271 -0.669129 -8.190248
v -16.576271 0.325201 -8.190248
v -16.576271 0.325201 -7.304531
v -15.371852 0.081255 -6.923739
v -15.371852 0.081255 -8.571039
v -16.576271 0.084300 -8.571039
v -16.576271 0.084300 -6.923739
v -16.576271 0.084300 -8.190248
v -16.576271 0.084300 -7.304531
v -15.371852 0.081255 -7.304531
v -15.371852 0.081255 -8.190248
v -16.653358 -0.669129 -7.304531
v -16.653358 -0.669129 -8.190248
v -16.653358 0.084300 -8.190248
v -16.653358 0.084300 -7.304531
vn 1.0000 -0.0000 -0.0000
vn -0.0000 -0.0000 -1.0000
vn -1.0000 -0.0000 -0.0000
vn -0.0000 -0.0000 1.0000
vn -0.0000 -1.0000 -0.0000
vn -0.0000 1.0000 -0.0000
vt 7.270087 5.560516
vt 7.270087 1.115372
vt 4.469320 1.115372
vt 4.469320 5.560516
vt -9.985586 1.115372
vt -9.950032 20.344984
vt -7.137897 20.344984
vt -7.184821 1.115372
vt 4.929635 -10.549900
vt 0.484497 -10.549899
vt 0.484497 -7.737764
vt 4.929635 -7.737765
vt -4.325762 20.344982
vt -4.290206 1.115370
vt -7.090973 1.115370
vt -7.137897 20.344982
vt -14.299980 -19.344984
vt -18.745117 -19.344984
vt -18.745117 -0.115372
vt -14.299978 -0.115372
vt 0.484496 -19.344984
vt -3.960648 -19.344984
vt -3.960647 -0.115373
vt 0.484496 -0.115373
vt 19.714108 -10.549900
vt 15.268964 -10.549900
vt 15.268967 -7.737765
vt 19.714108 -7.737766
vt 7.270087 20.344984
vt 7.270087 15.899848
vt 4.469320 15.899848
vt 4.469320 20.344984
vt 16.029613 15.899845
vt 16.029613 5.560516
vt 16.029613 20.344984
vt 16.029617 11.454701
vt 17.260363 11.454701
vt 17.260363 1.115370
vt 16.029617 1.115370
vt 19.714108 -19.344984
vt 15.268964 -19.344984
vt 4.469322 20.344982
vt 4.469322 1.115370
vt 4.929633 -19.344982
vt 0.484496 -19.344982
vt -18.745117 1.115372
vt -18.745117 20.344984
vt 16.029613 1.115372
vt 10.823827 -7.737765
vt 0.484496 -7.737764
vt 0.484497 1.057320
vt 10.823827 1.057320
vt 10.823827 -7.737764
vt 10.823827 -6.507020
vt 19.618912 -6.507020
vt 19.618912 -7.737764
vt -14.299978 1.115372
vt -3.960647 1.115372
vt 19.618912 -5.276276
vt 19.618912 -6.507020
vt 10.823827 -5.276275
s 0
f 32/24/7 26/25/7 12/26/7 20/27/7
f 26/28/8 27/29/8 16/30/8 12/31/8
f 30/32/9 28/33/9 14/34/9 24/35/9
f 28/36/10 25/37/10 10/38/10 14/39/10
f 18/40/11 9/41/11 13/42/11 21/43/11
f 11/44/11 17/45/11 22/46/11 15/47/11
f 17/45/11 18/40/11 21/43/11 22/46/11
f 27/48/9 29/49/9 23/50/9 16/51/9
f 29/49/9 30/32/9 24/35/9 23/50/9
f 25/52/7 31/53/7 19/54/7 10/55/7
f 31/53/7 32/24/7 20/27/7 19/54/7
f 18/56/7 17/57/7 32/24/7 31/53/7
f 9/58/7 18/56/7 31/53/7 25/52/7
f 29/59/12 35/60/12 36/61/12 30/62/12
f 15/63/9 22/64/9 29/49/9 27/48/9
f 13/65/10 9/66/10 25/37/10 28/36/10
f 21/67/9 13/68/9 28/33/9 30/32/9
f 11/69/8 15/70/8 27/29/8 26/28/8
f 17/57/7 11/71/7 26/25/7 32/24/7
f 34/72/9 33/73/9 36/74/9 35/75/9
f 30/76/10 36/77/10 33/78/10 21/79/10
f 21/43/11 33/80/11 34/81/11 22/46/11
f 22/82/8 34/83/8 35/77/8 29/84/8
g doorframe.022_Cube.127
v -16.689493 -0.666707 -7.915929
v -16.689493 -0.047287 -7.915929
v -16.689493 -0.666707 -7.561553
v -16.689493 -0.047287 -7.561553
v -16.689493 -0.071716 -7.587501
v -16.689493 -0.071716 -7.889981
v -16.689493 -0.667521 -7.587501
v -16.689493 -0.667521 -7.889981
v -16.630983 -0.071716 -7.889981
v -16.630983 -0.667521 -7.587501
v -16.630983 -0.667521 -7.889981
v -16.630983 -0.071716 -7.587501
v -16.630983 -0.047287 -7.561553
v -16.630983 -0.047287 -7.915929
v -16.630983 -0.666707 -7.561553
v -16.630983 -0.666707 -7.915929
vn -1.0000 -0.0000 -0.0000
vn -0.0000 -0.0000 -1.0000
vn 1.0000 -0.0000 -0.0000
vn -0.0000 -0.0000 1.0000
vn -0.0000 -0.9995 0.0314
vn -0.0000 -0.9995 -0.0314
vn -0.0000 -1.0000 -0.0000
vn -0.0000 1.0000 -0.0000
vt -0.094641 -1.568420
vt -0.094641 1.308978
vt -0.208121 1.312760
vt -0.208121 -1.454940
vt -1.644486 -1.568420
vt -1.531006 -1.454940
vt 2.168773 1.199280
vt 1.930917 1.199280
vt 1.930917 -1.568420
vt 2.168773 -1.568420
vt 1.455204 -1.568420
vt 1.341724 -1.454940
vt 0.018839 -1.454940
vt 1.341724 1.312760
vt 1.455204 1.308978
vt 1.455204 -1.568420
vt 1.693060 -1.568420
vt 1.693060 1.308978
vt 1.455204 1.308978
vt 0.018839 1.312760
vt 2.406630 1.199280
vt 2.406630 -1.568420
vt -1.644486 1.312760
vt -1.531006 1.312760
vt -1.531006 1.550617
vt -1.644486 1.550617
vt 1.930917 1.308978
vt 1.693060 1.308978
vt 1.693060 -1.568420
vt 1.930917 -1.568420
vt -1.644486 1.308978
vt -1.417526 1.312760
vt -1.417526 1.550617
vt 2.168774 1.199280
vt 2.406630 1.199280
vt 2.406630 2.522165
vt 2.168774 2.522165
vt 2.406630 -1.568420
vt 2.644486 -1.568420
vt 2.644486 -0.018575
vt 2.406630 -0.018575
s 0
f 38/85/13 37/86/13 44/87/13 42/88/13
f 40/89/13 38/85/13 42/88/13 41/90/13
f 46/91/14 43/92/14 41/93/14 48/94/14
f 49/95/15 48/96/15 45/97/15 50/85/15
f 46/98/15 48/96/15 49/95/15 51/99/15
f 38/100/14 50/101/14 52/102/14 37/103/14
f 45/97/15 47/104/15 52/86/15 50/85/15
f 44/105/16 47/91/16 45/94/16 42/106/16
f 39/107/17 43/108/17 46/109/17 51/110/17
f 39/111/16 51/112/16 49/113/16 40/114/16
f 39/115/13 40/89/13 41/90/13 43/108/13
f 44/108/18 37/116/18 52/117/18 47/109/18
f 42/118/19 45/119/19 48/120/19 41/121/19
f 40/122/20 49/123/20 50/124/20 38/125/20
g door.023_Plane.064
v -16.679964 -0.061837 -7.578341
v -16.679964 -0.663800 -7.578341
v -16.679964 -0.061837 -7.901139
v -16.679964 -0.663800 -7.901139
vn -1.0000 -0.0000 -0.0000
vt -0.348027 1.483413
vt 1.067965 1.483413
vt 1.067965 -0.483413
vt -0.348027 -0.483413
s 0
f 53/126/21 55/127/21 56/128/21 54/129/21
