# Blender 3.6.3
# www.blender.org
g doorframe.014_Cube.080
v 20.093222 -0.587176 -1.472975
v 20.093222 0.124290 -1.472975
v 19.658995 -0.587176 -1.472975
v 19.658995 0.124290 -1.472975
v 19.690788 0.093401 -1.472975
v 20.061428 0.093401 -1.472975
v 19.690788 -0.588206 -1.472975
v 20.061428 -0.588206 -1.472975
v 20.061428 0.093401 -1.544668
v 19.690788 -0.588206 -1.544668
v 20.061428 -0.588206 -1.544668
v 19.690788 0.093401 -1.544668
v 19.658995 0.124290 -1.544668
v 20.093222 0.124290 -1.544668
v 19.658995 -0.587176 -1.544668
v 20.093222 -0.587176 -1.544668
v 20.087976 -0.381107 -1.519388
v 20.087976 -0.338018 -1.519388
v 20.087976 -0.381107 -1.476299
v 20.087976 -0.338018 -1.476299
v 19.664240 -0.381107 -1.519388
v 19.664240 -0.338018 -1.519388
v 19.664240 -0.381107 -1.476299
v 19.664240 -0.338018 -1.476299
vn -0.0000 -0.0000 1.0000
vn 1.0000 -0.0000 -0.0000
vn -0.0000 -0.0000 -1.0000
vn -1.0000 -0.0000 -0.0000
vn -0.0324 -0.9995 -0.0000
vn 0.0324 -0.9995 -0.0000
vn -0.0000 -1.0000 -0.0000
vn -0.0000 1.0000 -0.0000
vt 0.100598 -1.192695
vt 0.007491 -1.099588
vt 0.007491 0.954920
vt 0.100598 0.951817
vt -1.171005 -1.192695
vt -1.077898 -1.099588
vt 1.957665 0.861813
vt 1.957665 -1.192695
vt 1.762510 -1.192695
vt 1.762510 0.861813
vt 1.372202 -1.192695
vt 0.193705 -1.099588
vt 1.279094 -1.099588
vt 1.279094 0.954920
vt 1.372202 0.951817
vt 1.372202 -1.192695
vt 1.372202 0.951817
vt 1.567356 0.951817
vt 1.567356 -1.192695
vt 0.193705 0.954920
vt 2.152819 0.861813
vt 2.152819 -1.192695
vt -0.975850 0.954920
vt -0.975850 1.150074
vt -0.882743 1.150074
vt -0.882743 0.954920
vt 1.762510 0.951817
vt 1.762510 -1.192695
vt -1.171005 0.951817
vt -1.077898 0.954920
vt -0.789636 1.150074
vt -0.789636 0.954920
vt -1.171005 0.954920
vt -1.171005 2.040309
vt -0.975850 2.040309
vt -0.975850 0.954920
vt 1.957665 0.861813
vt 1.957665 2.133416
vt 2.152819 2.133416
vt 2.152819 0.861813
vt -0.672344 1.084801
vt -0.672344 0.954920
vt -0.789636 0.954920
vt -0.789636 1.084801
vt 1.892391 0.861813
vt 1.762510 0.861813
vt 1.762510 2.102691
vt 1.892392 2.102691
vt -0.555051 1.084801
vt -0.555051 0.954920
vt 1.762510 0.951817
vt 1.632629 0.951817
vt 1.632629 2.192695
vt 1.762511 2.192695
vt 1.372202 0.951817
vt 1.372202 2.192695
vt 1.489494 2.192695
vt 1.489494 0.951817
vt 1.515336 0.951817
vt 1.515337 2.192695
vt 1.632629 2.192695
vt 1.632629 0.951817
s 0
f 2/1/1 6/2/1 8/3/1 1/4/1
f 4/5/1 5/6/1 6/2/1 2/1/1
f 10/7/2 12/8/2 5/9/2 7/10/2
f 13/11/3 14/1/3 9/12/3 12/13/3
f 10/14/3 15/15/3 13/11/3 12/13/3
f 2/16/2 1/17/2 16/18/2 14/19/2
f 9/12/3 14/1/3 16/4/3 11/20/3
f 8/21/4 6/22/4 9/8/4 11/7/4
f 3/23/5 15/24/5 10/25/5 7/26/5
f 3/27/4 4/28/4 13/19/4 15/18/4
f 3/29/1 7/30/1 5/6/1 4/5/1
f 8/26/6 11/25/6 16/31/6 1/32/6
f 6/33/7 5/34/7 12/35/7 9/36/7
f 4/37/8 2/38/8 14/39/8 13/40/8
f 17/41/2 18/42/2 20/43/2 19/44/2
f 19/45/1 20/46/1 24/47/1 23/48/1
f 23/49/4 24/50/4 22/42/4 21/41/4
f 21/51/3 22/52/3 18/53/3 17/54/3
f 19/55/7 23/56/7 21/57/7 17/58/7
f 24/59/8 20/60/8 18/61/8 22/62/8
g warehouse-like_small_Cube.077
v 20.508492 -0.575144 -8.214323
v 20.508492 0.634194 -8.214323
v 20.508492 -0.575144 -1.513302
v 20.508492 0.634194 -1.513302
v 18.288128 -0.575144 -8.214323
v 18.288128 0.634194 -8.214323
v 18.288128 -0.575144 -1.513302
v 18.288128 0.634194 -1.513302
v 20.508492 -0.575144 -4.277948
v 20.508492 -0.575144 -5.449677
v 20.508492 0.634194 -5.449677
v 20.508492 0.634194 -4.277948
v 20.508492 0.122347 -8.214323
v 20.508492 0.122347 -1.513302
v 18.288128 0.122347 -1.513302
v 18.288128 0.122347 -8.214323
v 20.508492 0.122347 -5.449677
v 20.508492 0.122347 -4.277948
v 20.430204 -0.575144 -4.277948
v 20.430204 -0.575144 -5.449677
v 20.430204 0.122347 -5.449677
v 20.430204 0.122347 -4.277948
v 20.411604 -0.575144 -8.117435
v 20.411604 0.634194 -8.117435
v 20.411604 -0.575144 -1.610189
v 20.411604 0.634194 -1.610189
v 18.385015 -0.575144 -8.117435
v 18.385015 0.634194 -8.117435
v 18.385015 -0.575144 -1.610189
v 18.385015 0.634194 -1.610189
v 20.411604 -0.575144 -4.181061
v 20.411604 -0.575144 -5.546564
v 20.411604 0.634194 -5.449677
v 20.411604 0.634194 -4.277948
v 20.411604 0.122347 -8.117435
v 20.411604 0.122347 -1.610189
v 18.385015 0.122347 -1.610189
v 18.385015 0.122347 -8.117435
v 20.334093 0.180480 -5.507809
v 20.334093 0.180480 -4.219816
v 20.430204 -0.575144 -4.181061
v 20.430204 -0.575144 -5.546564
v 20.430204 0.219235 -5.546564
v 20.430204 0.219235 -4.181061
vn 1.0000 -0.0000 -0.0000
vn -0.0000 -0.0000 1.0000
vn -1.0000 -0.0000 -0.0000
vn -0.0000 -0.0000 -1.0000
vn -0.0000 -1.0000 -0.0000
vn -0.9966 0.0809 0.0155
vn -0.9966 0.0809 -0.0155
vn -0.9857 0.1684 -0.0000
vn 0.3224 -0.0075 0.9466
vn -0.9985 -0.0529 -0.0143
vn -0.9985 -0.0529 0.0143
vn 0.3224 -0.0075 -0.9466
vn 0.3740 -0.9274 -0.0000
vn -0.0000 1.0000 -0.0000
vt 1.625383 -5.614138
vt -0.215747 -5.614138
vt -0.215747 -15.558652
vt 1.625383 -15.558652
vt 10.992651 7.848107
vt 12.833778 7.848107
vt 12.833232 15.823107
vt 10.992102 15.823107
vt 5.974945 8.545122
vt 4.134281 8.545122
vt 4.134281 -15.558652
vt 5.974944 -15.558652
vt -14.340488 16.520121
vt -16.181616 16.520121
vt -16.182165 8.545122
vt -14.341037 8.545122
vt 1.625383 8.545122
vt -0.215746 8.545122
vt -0.215746 -1.399393
vt 1.625383 -1.399393
vt 1.064246 11.054019
vt 1.064246 8.545122
vt 1.345432 8.545140
vt 1.345432 11.054037
vt 4.134281 -1.399393
vt -11.831592 16.520121
vt -11.832140 8.545122
vt 8.483208 8.545122
vt 8.483208 -15.558652
vt 8.483753 7.848107
vt 8.483206 15.823107
vt 4.134281 -5.614138
vt 1.626616 8.545122
vt 1.626616 11.054019
vt 1.345429 11.054037
vt 1.345429 8.545140
vt 0.077386 12.759865
vt 0.077385 8.545122
vt 0.358737 8.545122
vt 0.358737 12.759865
vt 14.471123 -1.538796
vt 14.673901 7.848109
vt 12.833239 7.848109
vt 12.833239 -1.747900
vt -9.990464 8.545122
vt -9.989964 15.824131
vt -11.831091 15.824131
vt -11.831592 8.545122
vt 10.324337 -15.558652
vt 10.324337 7.848107
vt 8.483208 7.848107
vt -4.972172 15.824131
vt -4.971670 8.545122
vt -3.130543 8.545122
vt -3.131043 15.824131
vt 14.673901 -15.558652
vt 14.471123 -6.171747
vt 12.833237 -5.962643
vt 12.833237 -15.558652
vt 0.425549 11.402530
vt 0.358739 11.402523
vt 0.358739 8.545120
vt 0.711492 8.684370
vt 17.182165 -15.558652
vt 17.182165 -6.311151
vt -7.481066 15.824131
vt -7.480567 8.545122
vt 12.833232 -15.558652
vt 12.833237 7.848107
vt -7.481567 8.545122
vt 17.182165 -1.399393
vt 17.182165 7.848107
vt 1.064246 8.545120
vt 1.064246 11.402523
vt 0.997435 11.402530
vt 0.077385 13.317474
vt -0.273861 13.456878
vt -0.273861 8.545122
vt 0.077385 8.684525
vt -8.195456 8.545122
vt -8.195456 -1.399393
vt -7.847254 -1.050886
vt -7.847254 8.196615
vt -16.182165 -1.399393
vt -15.833658 -1.399393
vt -15.833658 8.196615
vt -8.195456 -15.558650
vt -0.563948 -15.210145
vt -7.847255 -15.210145
vt -8.543962 8.196615
vt -0.563947 8.196615
vt -8.195456 -15.558652
vt -8.543962 -15.210146
vt -16.182165 -15.558652
vt -15.833658 -15.210146
vt -8.195456 -5.614138
vt -7.847255 -5.962643
vt -16.182165 -5.614138
vt -15.833658 -5.614138
vt -0.273860 8.893628
vt -2.782124 8.893628
vt -3.130542 8.545122
vt -0.273860 8.545122
vt -2.782124 13.108371
vt -0.273860 13.108371
vt -0.273860 13.456878
vt -3.130541 13.456878
vt -7.914104 -1.399393
vt -7.914104 -1.050886
vt -7.914104 -5.614138
vt -7.914104 -5.962643
s 0
f 42/63/9 36/64/9 28/65/9 38/66/9
f 38/67/10 28/68/10 32/69/10 39/70/10
f 39/71/11 32/72/11 30/73/11 40/74/11
f 40/75/12 30/76/12 26/77/12 37/78/12
f 37/79/9 26/80/9 35/81/9 41/82/9
f 41/82/9 35/81/9 36/64/9 42/63/9
f 34/83/10 41/84/10 45/85/10 44/86/10
f 25/72/9 37/79/9 41/82/9 34/87/9
f 29/88/12 40/75/12 37/78/12 25/89/12
f 31/90/11 39/71/11 40/74/11 29/91/11
f 27/92/10 38/67/10 39/70/10 31/93/10
f 33/94/9 42/63/9 38/66/9 27/73/9
f 42/95/12 33/96/12 43/97/12 46/98/12
f 41/99/13 42/100/13 46/101/13 45/102/13
f 64/103/14 60/104/14 50/105/14 58/106/14
f 60/107/12 61/108/12 54/109/12 50/110/12
f 61/111/9 62/112/9 52/113/9 54/91/9
f 62/114/10 59/115/10 48/116/10 52/117/10
f 59/118/15 63/119/15 57/120/15 48/121/15
f 63/119/16 64/103/16 58/106/16 57/120/16
f 56/122/17 66/123/17 67/124/17 63/125/17
f 47/126/18 56/127/18 63/119/18 59/118/18
f 51/128/10 47/129/10 59/115/10 62/114/10
f 53/130/9 51/131/9 62/112/9 61/111/9
f 49/132/12 53/128/12 61/108/12 60/107/12
f 55/133/19 49/134/19 60/104/19 64/103/19
f 64/125/20 68/135/20 65/136/20 55/137/20
f 63/138/21 67/139/21 68/140/21 64/141/21
f 25/142/13 34/143/13 56/144/13 47/145/13
f 28/77/22 36/146/22 58/147/22 50/148/22
f 27/149/13 31/65/13 53/150/13 49/151/13
f 32/142/22 28/77/22 50/148/22 54/152/22
f 31/65/13 29/80/13 51/153/13 53/150/13
f 30/154/22 32/142/22 54/152/22 52/155/22
f 29/80/13 25/142/13 47/145/13 51/153/13
f 26/156/22 30/154/22 52/155/22 48/157/22
f 33/158/13 27/149/13 49/151/13 55/159/13
f 35/160/22 26/156/22 48/157/22 57/161/22
f 36/146/22 35/160/22 57/161/22 58/147/22
f 44/162/11 45/163/11 67/164/11 66/165/11
f 46/166/11 43/167/11 65/168/11 68/169/11
f 45/163/11 46/166/11 68/169/11 67/164/11
f 34/143/13 44/170/13 66/171/13 56/144/13
f 43/172/13 33/158/13 55/159/13 65/173/13
g door.015_Plane.046
v 19.679571 0.105894 -1.496136
v 19.679571 -0.583498 -1.496136
v 20.075106 0.105894 -1.496136
v 20.075106 -0.583498 -1.496136
vn -0.0000 -0.0000 1.0000
vt -0.575273 1.723722
vt -0.575273 -0.723722
vt 1.370154 -0.723722
vt 1.370154 1.723722
s 0
f 69/174/23 70/175/23 72/176/23 71/177/23
g blacktop.002_Cube.078
v 20.508490 0.529623 -8.214323
v 20.508490 0.529623 -1.513302
v 18.288126 0.529623 -8.214323
v 18.288126 0.529623 -1.513302
vn -0.0000 1.0000 -0.0000
vt 3.242570 8.323617
vt -2.242570 8.323617
vt -2.242570 -7.323617
vt 3.242570 -7.323617
s 0
f 76/178/24 74/179/24 73/180/24 75/181/24
g door.014_Plane.044
v 20.428345 0.264856 -4.260699
v 20.428345 -0.456816 -4.260699
v 20.428345 0.264856 -5.462260
v 20.428345 -0.456816 -5.462260
vn 1.0000 -0.0000 -0.0000
vt -0.492932 -1.155946
vt 0.919363 -1.155946
vt 0.919363 2.155946
vt -0.492932 2.155946
s 0
f 77/182/25 78/183/25 80/184/25 79/185/25
